<svg width="635" height="200" viewBox="0 0 635 200" fill="none" xmlns="http://www.w3.org/2000/svg" id="svg-2102370073_12502">
<g clip-path="url(#svg-2102370073_12502_clip0_317_15)">
<path fill-rule="evenodd" clip-rule="evenodd" d="M50.0001 1.37711C39.3483 2.73253 19.5326 7.46987 10.7061 10.7723C-0.479419 14.9578 -2.73243 20.0349 4.49407 24.7699C8.08684 27.1241 9.39648 27.4759 33.582 32.5976C47.2531 35.4928 53.5109 37.5253 63.3146 42.2542C81.2736 50.9169 84.6941 56.0554 77.6929 63.8554C74.4206 67.5012 71.9326 74.7783 73.0049 77.5711C74.4001 81.206 80.4748 83.1771 94.2844 84.4747C101.735 85.1747 109.389 86.3361 111.293 87.0566C115.668 88.712 118.34 94.8349 118.242 102.981C118.117 113.535 119.403 114.783 132.547 116.881C143.109 118.566 144.078 118.955 145.595 122.12C146.923 124.892 146.958 126.529 145.775 130.751C144.974 133.617 144.556 136.681 144.847 137.559C145.152 138.475 148.676 139.676 153.111 140.373L160.843 141.589L160.431 148.955L160.019 156.322L165.606 160.992C168.678 163.561 173.064 166.311 175.351 167.104C181.236 169.143 188.352 174.781 186.888 176.245C186.125 177.007 184.601 176.543 182.541 174.923C180.795 173.549 177.369 171.787 174.925 171.005C172.481 170.223 169.398 168.613 168.072 167.429C166.747 166.245 163.421 164.681 160.68 163.954C157.099 163.004 154.448 161.11 151.262 157.219C146.56 151.482 143.696 150.613 138.013 153.204C134.256 154.916 131.147 152.555 127.445 145.181C123.875 138.067 119.413 132.53 117.253 132.53C116.207 132.53 113.252 134.428 110.684 136.747C108.118 139.066 105.327 140.964 104.482 140.964C101.294 140.964 97.417 136.936 93.9037 129.978C91.9061 126.02 89.5784 122.516 88.7326 122.192C87.8868 121.866 83.9977 122.434 80.0917 123.451C69.6531 126.17 69.1326 126.017 65.1712 119.082L61.6194 112.863L54.0399 112.449C49.87 112.222 45.7989 111.361 44.9917 110.536C44.1856 109.711 41.729 105.876 39.5338 102.012C36.117 96 34.3736 94.3578 27.423 90.6133C16.8423 84.9096 15.6146 85.8422 18.6917 97.2398C27.1748 128.661 64.817 170.695 99.3977 187.361C105.362 190.236 112.952 193.492 116.265 194.595C122.739 196.753 154.116 200.17 162.048 199.582C166.394 199.259 166.824 198.936 166.427 196.299C165.364 189.242 165.575 188.564 168.953 188.175C170.986 187.941 175.399 189.454 180.498 192.134C190.786 197.54 196.462 198.607 200.58 195.91C204.834 193.122 204.452 189.447 198.795 178.771C193.501 168.78 192.492 161.973 196.084 160.513C200.287 158.805 209.26 159.78 213.759 162.434C219.834 166.018 221.289 165.753 222.2 160.893C223.46 154.177 223.18 132.633 221.712 123.494C220.211 114.134 216.462 98.6421 213.715 90.4373C211.248 83.0735 200.284 64.8783 192.557 55.3265C176.123 35.0096 149.936 16.7759 127.711 10.1735C97.7579 1.2771 72.9073 -1.53614 50.0001 1.37711ZM42.9977 15.2361C41.4254 16.8072 42.176 18.0723 44.6784 18.0723C46.0808 18.0723 46.9784 17.441 46.7122 16.6422C46.1254 14.8807 44.1134 14.1193 42.9977 15.2361ZM59.3965 15.859C55.3254 16.9638 53.482 18.6807 55.2146 19.7506C56.6603 20.6446 65.0603 18.1964 65.0603 16.8819C65.0603 15.0626 63.4218 14.7663 59.3965 15.859ZM78.9158 17.4398C79.5784 17.741 86.464 18.8 94.2158 19.7952C108.611 21.6434 115.153 23.7916 131.628 32.0831C161.076 46.9024 183.271 71.5518 190.95 97.9638C193.169 105.599 195.995 107.072 197.169 101.205C197.906 97.5205 199.722 96.3759 200.516 99.0964C200.757 99.9253 201.633 104.494 202.462 109.252C204.33 119.973 205.417 121.939 207.774 118.855C208.711 117.629 209.977 116.934 210.587 117.311C211.852 118.093 214.358 132.595 214.778 141.566C214.934 144.88 215.603 147.441 216.265 147.258C218.088 146.755 217.65 137.13 215.087 121.386C213.183 109.688 212.423 107.229 210.709 107.229C209.568 107.229 208.386 107.907 208.082 108.735C207.003 111.68 205.211 107.847 203.729 99.4241C202.041 89.8373 200.557 87.1952 198.033 89.2891C197.127 90.0409 196.386 91.4036 196.386 92.3157C196.386 96.2289 193.623 93.4144 190.389 86.2048C180.229 63.5614 158.206 41.2494 133.934 29.012C115.292 19.612 108.98 17.8229 92.7712 17.341C84.4881 17.0952 78.2531 17.1398 78.9158 17.4398ZM463.258 32.9831L453.624 34.3373L446.39 44.5193L439.157 54.7L438.123 45.8819L437.088 37.0638L428.662 37.894C416.378 39.1048 416.554 38.9651 417.362 46.853C418.747 60.3855 421.705 88.712 422.381 94.9169L423.075 101.28L427.337 100.48C429.681 100.04 434.113 99.0325 437.186 98.241L442.771 96.8012L442.356 86.5952C442.033 78.6638 442.337 76.0578 443.728 74.9048C445.225 73.6614 446.822 74.9891 453.584 83.0964C458.023 88.4169 462.116 92.7711 462.68 92.7711C463.245 92.7711 467.128 91.9988 471.311 91.0554C476.901 89.7927 481.947 89.5831 490.362 90.2602C496.657 90.7662 502.141 90.8614 502.548 90.4699C502.956 90.0795 504.77 78.1024 506.58 63.8554C508.389 49.6084 509.954 37.4434 510.056 36.8217C510.275 35.4855 502.674 33.9024 495.563 33.8048C491.762 33.7518 490.374 34.253 489.912 35.8434C489.576 37.0036 488.168 47.1687 486.782 58.4337C485.397 69.6988 483.995 80.1506 483.666 81.6602C483.145 84.0627 481.498 82.6494 470.486 70.3446L457.901 56.2831L461.741 51.3337C463.853 48.612 467.904 43.4892 470.742 39.9494C473.581 36.4096 475.904 33.0217 475.904 32.4193C475.904 31.1759 476.201 31.1627 463.258 32.9831ZM517.753 32.8313C516.8 35.3217 510.423 84.3193 510.981 84.8759C511.264 85.159 515.617 85.765 520.653 86.2217L529.81 87.0518L531.265 74.5494C532.065 67.6735 532.812 61.0614 532.925 59.8542C533.04 58.6482 536.799 64.6819 541.281 73.265L549.429 88.8686L558.63 90.2373C563.692 90.9891 568.016 91.4217 568.24 91.1976C568.464 90.9735 569.495 84.0518 570.533 75.8169C572.603 59.3711 573.256 56.3398 573.399 62.5108C573.788 79.2145 590.005 93.6843 607.007 92.5C610.774 92.2373 614.811 91.5891 615.977 91.0578C617.589 90.3253 617.931 90.5313 617.401 91.9132C617.017 92.9132 617.418 94.1891 618.292 94.7482C620.35 96.0638 627.927 98.7542 629.642 98.7771C630.441 98.7879 631.807 92.4723 633.063 82.9687C634.745 70.2458 634.853 66.9566 633.618 66.1928C631.598 64.9446 612.792 60.241 609.819 60.241C607.998 60.241 607.329 61.3988 606.69 65.659C605.727 72.0843 606.378 73.494 610.312 73.494C613.901 73.494 614.135 75.347 610.772 77.1458C605.15 80.1566 595.78 74.9012 594.488 68.0121C592.339 56.5566 597.315 46.9879 605.422 46.9879C609.917 46.9879 615.663 51.2277 615.663 54.5446C615.663 55.5916 618.828 56.9265 624.398 58.2289C629.201 59.353 633.539 60.2651 634.036 60.2566C635.813 60.2265 634.868 54.7156 632.046 48.6542C627.268 38.394 616.94 32.5301 603.642 32.5301C589.242 32.5301 579.978 38.694 575.104 51.5169L573.39 56.0241L574.045 50.9036C574.405 48.0879 575.031 43.6638 575.437 41.0747L576.176 36.3651L568.382 35.5313C555.88 34.1916 556.229 33.9012 554.622 47.0012C553.85 53.2891 553.17 58.9759 553.111 59.6385C553.053 60.3012 549.51 54.6084 545.239 46.9879C539.742 37.1819 536.663 32.9036 534.7 32.3494C529.606 30.9096 518.368 31.2289 517.753 32.8313ZM253.554 36.553C248.536 38.8506 243.635 44.9687 242.663 50.1518C240.8 60.0819 247.172 68.7301 261.711 76.0036C270.737 80.5193 273.494 82.7759 273.494 85.6482C273.494 90.8988 261.269 88.4024 259.104 82.7084C258.174 80.2614 256.435 79.394 248.887 77.6145C243.884 76.4349 239.425 75.8349 238.98 76.2819C237.181 78.0807 241.448 87.3675 246.609 92.8843C253.513 100.266 261.86 103.614 273.362 103.614C282.974 103.614 288.404 100.786 291.911 93.9518L294.062 89.759L293.284 95.912L292.506 102.064L302.571 103.349C308.106 104.055 312.759 104.511 312.91 104.36C313.06 104.21 313.668 98.812 314.26 92.3663C314.853 85.9205 315.546 80.4421 315.801 80.1915C316.057 79.9421 319.956 80.0361 324.466 80.4012L332.669 81.0638L331.845 93.3626L331.021 105.661L334.939 106.446C337.093 106.876 341.7 107.229 345.176 107.229H351.497L352.303 96.0843C352.747 89.9554 353.928 75.2337 354.927 63.3723C355.927 51.5096 356.311 41.3952 355.782 40.8952C355.252 40.3952 350.768 39.8 345.816 39.5711C338.517 39.2349 336.763 39.4988 336.55 40.9638C336.405 41.9578 335.937 46.9735 335.511 52.1084L334.734 61.4458L330.319 61.4325C327.89 61.4253 323.889 61.0868 321.428 60.6795L316.952 59.9398L317.687 48.753L318.422 37.5662L311.319 36.7663C296.619 35.1096 298.389 33.2783 296.786 51.8072C296.011 60.753 295.295 71.5964 295.194 75.9036L295.011 83.7349L293.266 78.9687C290.711 71.9904 287.465 69.1566 274.965 62.994C263.203 57.1952 260.203 54.3398 263.231 51.8253C265.584 49.8723 273.119 52.3446 274.084 55.3843C274.983 58.2144 276.569 58.7904 286.16 59.7735L293.976 60.5735V57.3349C293.976 50.588 287.972 42.2843 280.219 38.3096C274.087 35.165 258.787 34.1578 253.554 36.553ZM378.345 37.5193C374.717 38.1205 371.41 39.006 370.995 39.4867C370.58 39.9675 367.635 52.5602 364.45 67.4699C361.265 82.3795 357.951 97.2638 357.084 100.546C356.219 103.829 355.765 106.769 356.075 107.08C356.386 107.389 360.818 106.872 365.927 105.93C375.156 104.228 375.219 104.19 376.245 99.8482C377.263 95.5397 377.4 95.4554 386.283 93.6879L395.289 91.8964L397.074 95.3458C398.054 97.2434 399.458 98.7952 400.193 98.7952C404.419 98.7952 417.2 95.7169 417.63 94.594C417.911 93.8638 413.035 82.5879 406.797 69.5373C400.557 56.4855 394.582 43.6337 393.519 40.9759C391.369 35.6024 390.754 35.4627 378.345 37.5193ZM380.982 71.2988C380.193 76.7181 379.691 81.2964 379.868 81.4735C380.299 81.9048 389.204 79.8723 389.891 79.1867C390.634 78.4422 384.262 61.4458 383.239 61.4458C382.787 61.4458 381.772 65.8795 380.982 71.2988ZM485.137 113.882C479.946 114.754 475.374 115.792 474.978 116.187C474.582 116.583 476.353 130.126 478.912 146.284L483.565 175.661L502.928 175.122C526.99 174.451 529.688 174.035 533.268 170.457C538.641 165.083 535.859 150.729 528.288 144.773C525.218 142.359 525.101 141.977 526.837 140.049C531.471 134.908 529.929 124.118 523.73 118.294C517.229 112.187 504.136 110.689 485.137 113.882ZM440.147 116.06C435.39 117.513 431.068 119.134 430.54 119.661C429.416 120.786 414.63 184.108 415.329 184.807C415.589 185.067 420.08 183.878 425.307 182.165C434.34 179.204 434.862 178.836 435.819 174.765C436.791 170.642 437.162 170.394 445.747 168.143C451.551 166.623 454.813 166.247 455.088 167.07C455.319 167.764 456.225 169.313 457.103 170.512C458.564 172.512 459.329 172.565 466.395 171.161C470.631 170.319 475.031 169.383 476.175 169.082C477.919 168.619 476.039 164.11 464.422 140.893C456.816 125.69 450.188 113.29 449.694 113.336C449.2 113.382 444.904 114.607 440.147 116.06ZM313.466 127.883C305.592 129.711 299.39 136.512 297.56 145.325C292.986 167.361 307.418 189.402 329.025 193.376C337.687 194.97 347.777 189.981 353.292 181.377L355.641 177.711L355.058 182.724C354.371 188.628 355.277 189.114 367.018 189.14C375.394 189.159 374.886 189.912 376.57 175L377.419 167.47H383.743C392.153 167.47 393.01 168.695 392.023 179.311L391.23 187.84L400.134 187.193C405.03 186.837 409.578 186.389 410.241 186.198C410.937 185.995 411.446 180.91 411.446 174.143C411.446 163.131 411.269 162.295 408.452 160.013L405.458 157.589L407.941 155.578C414.311 150.42 417.033 140.551 414.052 133.417C411.409 127.092 407.387 126.228 382.805 126.705L362.048 127.108L360.198 142.169C358.458 156.329 358.295 156.872 357.477 151.265C356.415 143.986 352.88 138.587 346.435 134.395C337.662 128.692 322.71 125.739 313.466 127.883ZM497.481 127.002C497.089 127.402 497.097 129.748 497.497 132.213C498.224 136.689 498.235 136.696 503.629 136.307C506.6 136.093 509.44 135.665 509.937 135.358C511.218 134.565 511.065 129.195 509.739 128.375C507.981 127.289 498.266 126.201 497.481 127.002ZM442.165 136.145C442.141 136.476 441.393 141.219 440.505 146.687C438.705 157.755 438.848 157.957 446.436 155.029L450.1 153.614L446.154 144.578C443.984 139.608 442.189 135.813 442.165 136.145ZM380.271 144.729C378.798 152.098 379.171 153.012 383.657 153.012C392.339 153.012 397.865 148.389 395.181 143.373C394.139 141.425 392.658 140.964 387.458 140.964C381.216 140.964 381.001 141.076 380.271 144.729ZM321.821 146.669C319.363 149.128 318.018 151.949 317.427 155.895C315.662 167.661 319.284 175.118 327.515 176.661C331.112 177.336 332.157 176.987 334.424 174.352C335.893 172.643 337.288 170.746 337.523 170.135C337.783 169.461 341.403 169.498 346.715 170.226C351.534 170.889 355.7 171.207 355.974 170.935C356.246 170.661 356.846 167.601 357.306 164.135L358.142 157.831L352.264 157.689C341.87 157.436 339.422 156.46 338.297 152.114C337.222 147.967 334.024 145.257 328.645 143.935C326.007 143.287 324.665 143.824 321.821 146.669ZM500.403 150.74C500.825 152.32 501.18 154.86 501.188 156.383C501.204 159.012 501.583 159.133 508.735 158.793C515.212 158.484 516.313 158.095 516.612 156.016C517.266 151.446 514.128 149.066 506.624 148.443C499.736 147.872 499.645 147.906 500.403 150.74Z" fill="black"/>
</g>
<defs>
<clipPath id="svg-2102370073_12502_clip0_317_15">
<rect width="634.94" height="200" fill="white"/>
</clipPath>
</defs>
</svg>