<svg width="400" height="400" viewBox="0 0 400 400" fill="none" xmlns="http://www.w3.org/2000/svg" id="svg660371965_10298">
<path fill-rule="evenodd" clip-rule="evenodd" d="M92.6 51.1484C91.72 51.5504 90.418 52.4776 89.7068 53.2088C87.018 55.9724 87.15 53.4844 87.3016 98.6044C87.434 137.967 87.4684 139.584 88.2904 144.627C94.0588 180.035 114.459 209.247 145.364 226.355C156.672 232.614 169.446 236.866 183.6 239.08C190.153 240.106 208.216 240.1 214.8 239.07C232.773 236.258 248.164 230.253 262.4 220.496C279.921 208.488 294.213 190.962 302.435 171.4L303.948 167.8L320.074 167.569C335.178 167.353 336.402 167.282 339.388 166.44C352.696 162.693 362.33 152.772 365.258 139.8C365.648 138.072 365.792 134.266 365.771 126.2C365.737 113.317 365.432 111.493 362.212 104.951C357.71 95.8052 349.621 89.09 339.8 86.3472C336.867 85.528 335.542 85.4404 323.919 85.2972L311.238 85.1408L311.119 71.0704C311.004 57.5352 310.967 56.9392 310.137 55.4C309.035 53.358 307.399 51.8092 305.513 51.0212C304.181 50.4648 293.069 50.4008 199.113 50.4088C98.372 50.4172 94.1364 50.4468 92.6 51.1484ZM97.6 73V85.2H199.2H300.8V73V60.8H199.2H97.6V73ZM311.087 121.3C310.894 137.359 310.594 141.967 309.365 147.725L309.125 148.851L322.063 148.725L335 148.6L337.71 147.316C341.074 145.723 344.236 142.638 345.823 139.4L347 137V126.579V116.158L345.494 113.111C343.764 109.61 341.344 107.188 337.889 105.496L335.65 104.4H323.47H311.29L311.087 121.3ZM181.867 106.667C181.72 106.813 181.6 108.163 181.6 109.667C181.6 112.316 181.631 112.4 182.6 112.4H183.6V119.6V126.8H182.6C181.622 126.8 181.6 126.867 181.6 129.8V132.8H186.6H191.6V129.8C191.6 126.867 191.578 126.8 190.6 126.8H189.6V121.535V116.27L194.257 121.158L198.915 126.046L203.437 121.323L207.96 116.6L207.98 121.5L208 126.4H207C206.017 126.4 206 126.453 206 129.6V132.8H211H216V129.6C216 126.453 215.983 126.4 215 126.4H214V119.4V112.4H215C215.978 112.4 216 112.333 216 109.4V106.4H212.29H208.58L203.809 111.782C199.98 116.101 198.929 117.073 198.487 116.706C198.184 116.454 195.947 114.033 193.516 111.324L189.097 106.4H185.615C183.7 106.4 182.013 106.52 181.867 106.667ZM169.2 142.548C165.919 143.502 162.656 145.372 160.385 147.6C158.073 149.868 156.031 153.412 155.884 155.413C155.801 156.544 155.84 156.564 160.6 157.846C163.24 158.558 165.673 159.153 166.006 159.17C166.382 159.188 166.876 158.456 167.309 157.239C168.563 153.706 172.038 151.615 175.731 152.169C179.357 152.712 181.692 155.308 181.692 158.794C181.692 163.27 178.832 165.24 171.922 165.525L167.6 165.703V170.651V175.6H170.716C178.456 175.6 183.2 178.644 183.2 183.609C183.2 188.159 179.677 191.2 174.407 191.2C169.941 191.2 166.403 188.841 165.063 184.97C164.791 184.184 164.431 183.523 164.263 183.501C164.095 183.478 161.624 184.166 158.772 185.03L153.586 186.6L153.836 187.8C154.28 189.93 156.547 193.724 158.609 195.789C164.742 201.93 176.774 203.453 185.268 199.166C188.688 197.439 191.735 194.437 193.306 191.244C194.547 188.724 194.6 188.42 194.6 183.808C194.6 179.584 194.49 178.795 193.698 177.311C192.438 174.954 190.657 173.024 188.38 171.548L186.435 170.288L187.976 169.171C193.977 164.824 195.308 155.708 190.892 149.2C189.166 146.656 185.443 143.961 182.276 142.962C179.519 142.092 171.626 141.842 169.2 142.548ZM220.559 146.1C214.112 156.044 207.2 166.874 206.259 168.505C202.17 175.595 201.538 184.054 204.628 190.326C208.31 197.799 216.066 202.008 225.196 201.49C236.939 200.823 244.832 192.682 244.79 181.28C244.771 175.915 243.111 171.856 239.429 168.166C235.562 164.292 229.394 161.964 224.916 162.691C223.714 162.886 223.507 162.82 223.704 162.305C223.836 161.963 226.828 157.524 230.354 152.442L236.765 143.2H229.602H222.439L220.559 146.1ZM220.212 173.038C216.673 174.333 214.624 177.547 214.624 181.8C214.624 187.504 218.282 191.212 223.887 191.191C229.37 191.17 232.792 187.549 232.798 181.76C232.802 177.76 231.103 174.877 227.847 173.361C225.488 172.262 222.657 172.143 220.212 173.038ZM76.4 269.032C70.002 270.113 66.3664 271.736 62.734 275.134C51.862 285.304 54.4924 304.522 67.6352 310.94C71.6304 312.891 74.6664 313.601 78.984 313.594C84.942 313.584 90.5072 311.779 94.1008 308.69L95.6012 307.4L91.7668 302.8C89.658 300.27 87.708 297.967 87.4336 297.682C87.0276 297.26 86.5568 297.418 84.9024 298.531C79.4488 302.201 73.0084 299.685 71.5836 293.327C70.6204 289.029 72.5056 284.956 76.3608 283.005C78.5324 281.906 82.606 282.293 84.8444 283.81C85.81 284.464 86.7284 285 86.8852 285C87.042 285 89.06 282.75 91.3696 280L95.5692 275L94.2844 273.879C92.6164 272.423 88.8264 270.624 85.8 269.853C83.2516 269.203 78.0668 268.75 76.4 269.032ZM128.144 269.2C120.352 270.284 113.912 274.671 110.866 280.97C109.223 284.369 108.616 287.22 108.648 291.4C108.728 302.087 115.227 310.274 125.784 312.987C128.827 313.769 135.039 313.768 138.365 312.984C146.594 311.044 153.119 304.674 154.985 296.759C156.193 291.632 155.55 285.548 153.306 280.87C151.781 277.69 147.319 273.282 144 271.676C139.327 269.414 133.334 268.478 128.144 269.2ZM173.472 270.262C173.322 270.411 173.2 279.953 173.2 291.467V312.4H180.4H187.6V305.41V298.42L193.9 298.31L200.2 298.2V292.4V286.6L193.7 286.49L187.2 286.38V284.19V282H194.611H202.021L201.911 276.1L201.8 270.2L187.772 270.095C180.056 270.037 173.621 270.112 173.472 270.262ZM220 291.2V312.4H227H234V305.41V298.42L240.3 298.31L246.6 298.2L246.711 292.3L246.821 286.4H240.411H234V284.2V282H241.2H248.4V276V270H234.2H220V291.2ZM266.4 291.2V312.4H281.611H296.821L296.711 306.5L296.6 300.6L288.3 300.492L280 300.384V298.592V296.8H287.4H294.8V291.2V285.6H287.4H280V283.8V282H287.8H295.6V276V270H281H266.4V291.2ZM314.272 270.262C314.122 270.411 314 279.953 314 291.467V312.4H329.2H344.4V306.4V300.4H336H327.6V298.6V296.8H335H342.4V291.2V285.6H334.977H327.554L327.677 283.9L327.8 282.2L335.711 282.092L343.621 281.983L343.511 276.092L343.4 270.2L328.972 270.095C321.036 270.037 314.421 270.112 314.272 270.262ZM129.423 282.597C125.646 283.942 124 286.516 124 291.076C124 293.435 124.202 294.425 125.006 296.012C127.998 301.915 136.184 301.822 139.294 295.85C140.528 293.479 140.53 288.847 139.297 286.523C138.234 284.519 136.385 283.038 134.2 282.442C132.15 281.882 131.358 281.907 129.423 282.597ZM116.07 329.203C111.211 330.23 107.139 333.449 105.559 337.512C104.356 340.606 104.287 345.338 105.4 348.4C106.538 351.528 110.187 355.189 113.4 356.426C116.769 357.723 122.419 357.736 125.681 356.454C128.686 355.272 131.679 352.536 133.065 349.704C134.636 346.492 134.866 341.256 133.588 337.8C132.398 334.582 129.142 331.338 125.837 330.079C123.164 329.061 118.656 328.656 116.07 329.203ZM189.8 329.187C184.266 330.384 181.45 333.422 181.45 338.194C181.45 342.427 183.264 344.343 189.357 346.545C192.675 347.745 193.567 348.476 192.817 349.38C191.858 350.536 188.559 349.837 185.91 347.917C185.307 347.48 184.889 347.772 182.628 350.208C181.204 351.744 180.03 353.2 180.019 353.444C179.991 354.097 184.303 356.281 187.017 356.988C194.599 358.962 201.505 355.297 202.263 348.896C202.398 347.759 202.294 346.292 202.021 345.464C201.448 343.727 198.708 341.211 196.557 340.448C191.306 338.583 190.8 338.332 190.8 337.579C190.8 335.99 194.279 336.246 196.508 337.999L197.466 338.753L200.354 335.846L203.242 332.938L201.672 331.85C198.332 329.535 193.354 328.418 189.8 329.187ZM316.053 329.211C309.451 330.584 305.958 336.144 308.365 341.446C309.362 343.64 311.077 344.868 315.396 346.479C317.937 347.427 319.035 348.038 319.136 348.562C319.48 350.347 316.931 350.447 313.75 348.774L311.42 347.548L308.74 350.474L306.061 353.4L306.93 354.1C309.218 355.942 314.222 357.6 317.494 357.6C318.293 357.6 320.034 357.295 321.362 356.922C323.253 356.392 324.226 355.806 325.847 354.222C327.588 352.521 327.997 351.835 328.422 349.901C329.54 344.81 326.998 341.643 320 339.408C318.79 339.022 317.53 338.446 317.2 338.128C316.668 337.616 316.688 337.486 317.376 336.976C317.804 336.659 318.484 336.4 318.889 336.4C319.84 336.4 322.389 337.466 323.206 338.205C323.77 338.716 324.152 338.464 326.62 335.961L329.4 333.142L328.008 331.966C325.292 329.668 319.865 328.418 316.053 329.211ZM70.998 330.061C70.8828 330.361 70.8364 336.455 70.8944 343.603L71 356.6L75.4872 356.713L79.9744 356.826L80.0872 352.142L80.2 347.457L82.6408 352.029L85.0816 356.6L90.3408 356.712C93.2332 356.773 95.6 356.736 95.6 356.628C95.6 356.521 94.3548 354.462 92.8332 352.053C88.692 345.495 88.8784 346.115 90.614 344.684C94.2192 341.712 94.5892 336.11 91.4028 332.734C89.0428 330.234 87.4672 329.848 78.9036 329.673C72.664 329.545 71.1676 329.618 70.998 330.061ZM152.641 329.934C152.428 330.279 144.673 349.845 142.979 354.312L142.027 356.824L146.86 356.712L151.694 356.6L152.358 354.8L153.021 353L157.274 352.887L161.527 352.774L162.196 354.787L162.864 356.8H167.832C170.564 356.8 172.8 356.71 172.8 356.601C172.8 356.428 164.865 335.949 162.996 331.3L162.313 329.6H157.58C154.977 329.6 152.754 329.75 152.641 329.934ZM210.8 333.6V337.6H214H217.2V347.2V356.8H221.8H226.4V347.2V337.6H229.8H233.2V333.6V329.6H222H210.8V333.6ZM243.2 343.207V356.814L252.9 356.707L262.6 356.6L262.715 352.9L262.83 349.2H257.415H252V348.013V346.825L256.7 346.713L261.4 346.6L261.516 343.1L261.631 339.6H256.816H252V338.4V337.2H257H262V333.4V329.6H252.6H243.2V343.207ZM273.798 330.061C273.683 330.361 273.636 336.455 273.694 343.603L273.8 356.6L278.3 356.713L282.8 356.826L282.809 351.913L282.817 347L285.432 351.9L288.048 356.8H293.224C296.071 356.8 298.4 356.694 298.4 356.564C298.4 356.434 296.946 354.02 295.17 351.2L291.939 346.072L293.749 344.404C295.907 342.415 296.548 340.718 296.322 337.594C296.089 334.376 294.738 332.421 291.72 330.939C289.455 329.827 289.218 329.797 281.704 329.658C275.474 329.542 273.968 329.619 273.798 330.061ZM80 339.053V341.305L81.6156 341.089C83.6632 340.814 84.4 340.199 84.4 338.765C84.4 337.416 83.4676 336.8 81.4264 336.8H80V339.053ZM282.8 339.053V341.305L284.496 341.078C286.069 340.867 287.6 339.721 287.6 338.756C287.6 337.825 285.923 336.8 284.4 336.8H282.8V339.053ZM118.429 337.525C115.951 337.906 114.4 340.022 114.4 343.02C114.4 346.798 116.277 348.8 119.82 348.8C121.393 348.8 121.885 348.595 123.008 347.472C126.968 343.512 123.829 336.694 118.429 337.525ZM156.465 342.09C155.989 343.562 155.6 344.955 155.6 345.184C155.6 345.413 156.41 345.6 157.4 345.6C158.39 345.6 159.2 345.455 159.2 345.278C159.2 345.101 158.779 343.708 158.265 342.184L157.33 339.412L156.465 342.09Z" fill="black"/>
</svg>