<svg width="320" height="320" viewBox="0 0 320 320" fill="none" xmlns="http://www.w3.org/2000/svg" id="svg808921033_33131">
<path fill-rule="evenodd" clip-rule="evenodd" d="M32.0968 285.646C31.8326 287.616 32.1454 288.769 32.5982 287.493C33.1502 285.939 34.622 285.076 36.7203 285.076H38.8431V292.592C38.8431 299.693 38.7912 300.124 37.8996 300.407C35.9032 301.041 37.1038 301.586 40.4942 301.586C43.8845 301.586 45.0851 301.041 43.0887 300.407C42.1971 300.124 42.1452 299.693 42.1452 292.592V285.076H44.2341C46.0257 285.076 46.4913 285.292 47.5112 286.595C48.9547 288.439 49.3614 288.18 48.8542 285.737L48.4721 283.896L40.4191 283.768L32.3662 283.639L32.0968 285.646ZM51.1082 284.064C51.1082 284.301 51.5328 284.605 52.0517 284.741C52.9456 284.974 52.9951 285.384 52.9951 292.548C52.9951 299.693 52.9433 300.124 52.0517 300.407C49.6166 301.18 51.6115 301.586 57.8413 301.586H64.5739L65.0716 299.441C65.3456 298.261 65.4362 297.213 65.273 297.113C65.1098 297.012 64.3942 297.659 63.6828 298.55C62.4968 300.037 62.1789 300.171 59.8429 300.171C58.3191 300.171 57.1464 299.934 56.9233 299.582C56.7181 299.257 56.5464 297.665 56.5416 296.044L56.5332 293.095H58.8182C60.7061 293.095 61.1458 293.259 61.3496 294.039C61.8284 295.869 62.4298 294.951 62.4298 292.388C62.4298 289.808 61.8274 288.909 61.3425 290.764C61.1231 291.603 60.7783 291.715 58.8107 291.589L56.5332 291.444V288.26V285.077L59.2121 285.076C61.8949 285.076 62.778 285.511 63.7993 287.336C64.5069 288.6 64.8385 287.747 64.4215 285.737L64.0399 283.896L57.5743 283.765C53.8999 283.691 51.1082 283.819 51.1082 284.064ZM68.0907 284.077C68.0907 284.306 68.5152 284.605 69.0341 284.741C69.9281 284.974 69.9776 285.384 69.9776 292.548C69.9776 299.693 69.9257 300.124 69.0341 300.407C66.9543 301.067 68.3044 301.586 72.1004 301.586C75.979 301.586 77.4018 300.985 74.9681 300.374C73.9176 300.111 73.8133 299.825 73.6708 296.826C73.4628 292.456 74.244 292.523 77.2428 297.133C78.5146 299.087 79.9336 300.889 80.3959 301.136C81.4332 301.691 85.5449 301.735 85.5449 301.191C85.5449 300.973 85.0514 300.569 84.4486 300.295C83.8452 300.02 82.3305 298.3 81.0823 296.473L78.8123 293.151L80.2916 291.672C82.7678 289.195 82.2116 285.606 79.1538 284.328C77.3758 283.585 68.0907 283.375 68.0907 284.077ZM93.4049 287.039C92.5473 288.943 90.9269 292.673 89.8032 295.327C88.4937 298.422 87.4479 300.252 86.8889 300.43C85.1057 300.996 86.1058 301.586 88.847 301.586C90.4193 301.586 91.6774 301.377 91.6774 301.115C91.6774 300.855 91.518 300.64 91.3236 300.636C91.1293 300.632 90.6778 300.443 90.3207 300.217C89.7778 299.874 89.8075 299.451 90.5028 297.63L91.334 295.454H94.2847H97.2359L97.9945 297.35C98.9672 299.781 98.9507 300.045 97.8029 300.409C95.9268 301.005 97.459 301.586 100.904 301.586C104.251 301.586 105.464 301.04 103.5 300.417C102.997 300.257 102.358 299.446 102.08 298.615C100.771 294.705 96.007 283.924 95.5164 283.761C95.2056 283.657 94.2819 285.091 93.4049 287.039ZM105.83 284.077C105.83 284.306 106.254 284.605 106.773 284.741C107.667 284.974 107.716 285.384 107.716 292.548C107.716 299.693 107.665 300.124 106.773 300.407C104.777 301.041 105.977 301.586 109.368 301.586C112.977 301.586 113.463 301.391 112.179 300.451C111.692 300.095 111.366 298.796 111.19 296.508C110.902 292.749 111.269 292.297 112.91 294.392C113.468 295.106 114.687 296.515 115.618 297.525C117.146 299.18 117.234 299.416 116.523 299.935C114.87 301.144 115.669 301.586 119.51 301.586C123.206 301.586 124.395 301.024 122.321 300.257C121.793 300.061 119.767 297.906 117.821 295.469L114.282 291.037L117.25 288.038C118.882 286.389 120.695 284.918 121.279 284.77C123.352 284.245 122.295 283.66 119.274 283.66C117.544 283.66 116.208 283.866 116.208 284.132C116.208 284.392 116.526 284.604 116.915 284.604C118.271 284.604 117.604 285.83 114.662 288.745C113.033 290.359 111.599 291.68 111.475 291.68C111.114 291.68 110.934 286.559 111.259 285.535C111.421 285.023 111.964 284.604 112.465 284.604C112.967 284.604 113.377 284.392 113.377 284.132C113.377 283.857 111.805 283.66 109.603 283.66C107.528 283.66 105.83 283.848 105.83 284.077ZM131.886 285.665C131.404 286.768 129.855 290.403 128.444 293.744C126.606 298.094 125.577 299.956 124.817 300.306C123.012 301.137 123.633 301.586 126.586 301.586C129.534 301.586 130.035 301.256 128.522 300.311C127.666 299.777 127.661 299.658 128.404 297.585L129.18 295.418L132.205 295.554L135.229 295.69L135.972 297.732C136.663 299.632 136.657 299.805 135.896 300.232C134.263 301.145 135.148 301.586 138.615 301.586C142.198 301.586 142.833 301.295 141.316 300.347C140.855 300.059 138.998 296.192 137.188 291.752C135.379 287.313 133.643 283.676 133.33 283.67C133.018 283.665 132.368 284.562 131.886 285.665ZM139.323 283.908C139.323 284.044 139.813 284.342 140.412 284.57C141.252 284.889 141.918 286.108 143.308 289.865C146.937 299.675 147.904 302.058 148.252 302.058C148.448 302.058 148.878 301.156 149.207 300.053C150.355 296.216 152.623 290.265 152.938 290.265C153.112 290.265 153.872 292.016 154.625 294.157C156.567 299.675 157.698 302.238 158.038 301.897C158.201 301.736 159.657 297.831 161.274 293.221C163.74 286.197 164.378 284.815 165.214 284.689C167.345 284.367 166.066 283.66 163.353 283.66C161.568 283.66 160.605 283.837 160.787 284.132C160.947 284.392 161.384 284.604 161.758 284.604C162.132 284.604 162.438 284.698 162.438 284.812C162.438 285.844 158.957 295.452 158.695 295.147C158.504 294.926 157.416 292.25 156.276 289.2C155.137 286.149 153.998 283.722 153.746 283.806C153.494 283.89 152.484 286.239 151.502 289.026C150.521 291.812 149.536 294.417 149.314 294.813C149.024 295.331 148.423 294.16 147.179 290.659C145.179 285.03 145.124 284.604 146.399 284.604C146.918 284.604 147.342 284.392 147.342 284.132C147.342 283.855 145.691 283.66 143.332 283.66C141.127 283.66 139.323 283.772 139.323 283.908ZM171.364 284.958C171.097 285.671 169.577 289.302 167.986 293.027C165.869 297.985 164.805 299.931 164.016 300.29C162.352 301.049 163.176 301.586 166.004 301.586C168.71 301.586 169.07 301.348 167.783 300.407C167.084 299.896 167.064 299.587 167.608 297.643L168.221 295.454H171.401H174.58L175.193 297.643C175.737 299.587 175.718 299.896 175.018 300.407C173.671 301.393 174.118 301.586 177.741 301.586C181.415 301.586 182.486 301.117 180.684 300.295C179.877 299.928 178.826 297.846 176.362 291.735C174.432 286.947 172.851 283.66 172.478 283.66C172.132 283.66 171.631 284.245 171.364 284.958ZM189.327 284.077C189.327 284.306 189.751 284.605 190.27 284.741C191.164 284.974 191.214 285.384 191.214 292.548C191.214 299.693 191.162 300.124 190.27 300.407C188.19 301.067 189.54 301.586 193.336 301.586C197.434 301.586 198.404 301.104 195.994 300.264C194.688 299.809 194.643 299.687 194.657 296.68C194.676 292.474 195.513 292.573 198.479 297.133C199.751 299.087 201.135 300.87 201.555 301.095C202.568 301.637 212.335 301.669 212.668 301.131C212.811 300.9 212.5 300.575 211.977 300.409C210.829 300.045 210.813 299.781 211.786 297.35L212.544 295.454H215.465C218.344 295.454 218.393 295.476 218.951 297.021C219.707 299.112 219.665 300.144 218.81 300.472C217.111 301.125 218.383 301.586 221.876 301.586C225.427 301.586 226.75 301.056 224.767 300.426C224.187 300.242 223.2 298.488 221.896 295.323C220.803 292.671 219.271 288.962 218.49 287.081C217.71 285.199 216.805 283.66 216.481 283.66C216.156 283.66 214.323 287.383 212.407 291.934C209.521 298.788 208.734 300.255 207.818 300.485C206.01 300.939 204.675 299.967 202.116 296.336L199.695 292.898L200.844 292.202C203.946 290.32 203.499 285.361 200.12 284.183C198.343 283.564 189.327 283.475 189.327 284.077ZM228.437 284.554L229.573 285.428L229.254 292.446C228.973 298.637 228.825 299.556 228 300.247C227.486 300.677 227.065 301.155 227.065 301.308C227.065 301.461 228.22 301.586 229.632 301.586C232.236 301.586 233.492 300.953 231.778 300.505C230.907 300.277 230.843 299.874 230.887 294.909C230.963 286.215 231.137 286.204 234.569 294.674C237.015 300.711 237.685 301.973 238.213 301.535C238.568 301.241 238.859 300.819 238.859 300.599C238.859 300.379 239.357 299.078 239.966 297.709C240.575 296.339 241.69 293.732 242.443 291.916L243.812 288.614L244.119 291.208C244.288 292.635 244.448 295.115 244.473 296.72C244.514 299.244 244.393 299.676 243.576 299.935C243.057 300.1 242.633 300.539 242.633 300.91C242.633 301.437 243.414 301.586 246.171 301.586C249.52 301.586 250.765 301.042 248.825 300.426C248.082 300.191 247.895 299.49 247.651 296.031C247.39 292.33 247.216 286.739 247.313 285.194C247.334 284.87 247.656 284.604 248.03 284.604C248.404 284.604 248.841 284.392 249.001 284.132C249.182 283.839 248.295 283.66 246.659 283.66C244.216 283.66 243.99 283.755 243.544 284.958C242.059 288.971 239.053 295.918 238.8 295.921C238.638 295.924 237.383 293.166 236.011 289.793L233.515 283.66L230.408 283.671L227.301 283.681L228.437 284.554ZM252.067 283.908C252.067 284.044 252.598 284.357 253.247 284.604L254.426 285.052V292.386V299.72L253.247 300.257C252.598 300.552 252.067 300.973 252.067 301.191C252.067 301.408 255.136 301.586 258.885 301.586H265.703L266.195 299.817C267.011 296.879 266.776 296.593 265.072 298.453C263.513 300.154 263.35 300.215 260.709 300.078L257.964 299.935L257.825 296.515L257.687 293.095H260.012C261.939 293.095 262.378 293.256 262.582 294.039C263.054 295.843 263.625 294.965 263.657 292.387C263.689 289.676 263.299 289.143 262.446 290.737C262.056 291.464 261.458 291.68 259.835 291.68H257.728V288.378V285.076H260.525C263.117 285.076 263.409 285.188 264.529 286.609C265.801 288.223 266.005 287.897 265.453 285.135L265.158 283.66H258.613C255.013 283.66 252.067 283.772 252.067 283.908ZM269.27 284.107C269.439 284.38 269.883 284.604 270.257 284.604C271.084 284.604 271.001 283.955 271.194 291.916C271.373 299.321 271.274 300 269.962 300.417C268.31 300.942 269.513 301.586 272.144 301.586C274.684 301.586 275.591 300.983 273.767 300.506C272.882 300.275 272.825 299.869 272.839 293.965L272.854 287.67L273.817 288.961C277.552 293.967 284.222 302.058 284.614 302.058C284.915 302.058 285.089 298.934 285.089 293.523C285.089 285.384 285.133 284.976 286.032 284.741C287.926 284.245 286.904 283.66 284.145 283.66C281.183 283.66 280.586 284.061 282.376 284.846C283.365 285.279 283.447 285.647 283.573 290.192C283.659 293.29 283.536 295.013 283.237 294.909C282.978 294.819 280.895 292.305 278.607 289.321L274.447 283.896L271.705 283.753C269.875 283.658 269.065 283.776 269.27 284.107ZM73.7515 288.614C73.7515 291.981 73.8034 292.152 74.8256 292.152C76.8621 292.152 77.9971 290.886 77.9971 288.614C77.9971 286.342 76.8621 285.076 74.8256 285.076C73.8034 285.076 73.7515 285.246 73.7515 288.614ZM194.596 288.496C194.747 291.813 194.79 291.92 196.02 292.063C197.784 292.266 199.233 290.711 199.233 288.614C199.233 286.536 197.855 285.076 195.894 285.076H194.441L194.596 288.496ZM93.1554 290.799C92.602 292.131 92.1492 293.405 92.1492 293.63C92.1492 293.855 93.1276 294.039 94.3229 294.039C96.3585 294.039 96.4797 293.969 96.2236 292.95C95.8811 291.585 94.5517 288.378 94.3286 288.378C94.2371 288.378 93.7092 289.468 93.1554 290.799ZM131.162 290.383C130.775 291.486 130.308 292.759 130.123 293.213C129.83 293.935 130.087 294.039 132.165 294.039H134.544L133.588 291.208C133.062 289.652 132.459 288.378 132.248 288.378C132.036 288.378 131.548 289.28 131.162 290.383ZM170.197 290.841C169.691 292.196 169.207 293.47 169.121 293.672C169.034 293.874 170.065 294.039 171.412 294.039C173.557 294.039 173.819 293.936 173.524 293.213C173.339 292.759 172.872 291.486 172.486 290.383C172.1 289.28 171.633 288.378 171.45 288.378C171.266 288.378 170.702 289.486 170.197 290.841ZM214.345 290.462C212.939 293.743 213.035 294.039 215.508 294.039C216.676 294.039 217.631 293.97 217.631 293.887C217.631 293.368 216.02 289.009 215.698 288.654C215.476 288.41 214.888 289.197 214.345 290.462Z" fill="black"/>
<path fill-rule="evenodd" clip-rule="evenodd" d="M195.58 19.3889C174.961 22.5969 122.911 36.7839 94.7579 46.8689C88.6829 49.0449 82.6559 50.8259 81.3659 50.8259C80.0759 50.8259 78.367 51.4799 77.568 52.2779C76.77 53.0769 75.869 53.4829 75.566 53.1809C75.264 52.8789 73.7479 53.3089 72.1969 54.1379C70.6469 54.9669 64.5069 57.5769 58.5529 59.9389C46.1079 64.8749 43.0849 67.5809 40.3689 76.2139C38.9119 80.8479 38.7269 83.6949 39.3049 92.5749C40.3689 108.92 43.3769 129.541 49.3339 161.326C51.1889 171.226 53.4539 183.601 54.3669 188.826C56.5209 201.152 62.078 221.815 65.9139 231.762C72.373 248.513 77.3009 251.927 96.0309 252.629C107.258 253.05 134.544 250.773 141.378 248.846C147.152 247.217 153.493 245.78 167.915 242.835C189.499 238.426 217.846 229.669 242.878 219.677C252.755 215.734 264.878 209.164 264.878 207.754C264.878 207.218 263.64 207.546 262.128 208.482C260.259 209.639 260.966 208.527 264.334 205.012C268.069 201.113 269.007 199.555 268.141 198.689C267.274 197.822 266.339 198.313 264.345 200.682C261.097 204.543 259.503 204.777 261.404 201.114C262.177 199.623 262.455 198.16 262.021 197.864C261.587 197.568 260.968 196.608 260.646 195.731C260.258 194.677 259.008 194.199 256.952 194.322C254.352 194.476 253.94 194.206 254.429 192.666C254.892 191.205 254.483 190.826 252.445 190.826C251.033 190.826 249.878 190.459 249.878 190.01C249.878 189.561 246.808 190.655 243.056 192.443C239.304 194.23 231.316 197.34 225.306 199.354C219.296 201.368 213.478 203.39 212.378 203.849C211.278 204.307 200.928 207.444 189.378 210.82C177.828 214.196 167.787 217.15 167.064 217.385C166.342 217.62 158.242 219.173 149.064 220.836C139.887 222.499 129.667 224.464 126.354 225.202C123.041 225.94 117.268 226.873 113.524 227.274L106.716 228.003L108.441 225.37C110.783 221.796 109.89 208.04 106.399 193.903C104.666 186.885 104.155 183.149 104.835 182.469C105.39 181.914 106.13 181.744 106.478 182.093C106.826 182.441 109.094 190.286 111.517 199.526C117.421 222.04 117.701 222.826 119.833 222.826C120.823 222.826 122.147 222.206 122.776 221.449C123.913 220.079 122.917 215.582 115.363 188.005C113.438 180.979 113.308 179.598 114.524 179.132C115.316 178.828 116.154 178.769 116.386 179.001C116.618 179.233 118.419 185.026 120.388 191.874C124.115 204.835 127.829 214.009 130.58 217.049C132.738 219.433 136.145 219.293 138.471 216.724C141.059 213.864 144.107 212.418 152.572 210.036C157.849 208.551 160.747 208.233 163.444 208.841C168.135 209.899 169.878 209.205 169.878 206.278C169.878 203.32 168.874 202.729 162.527 201.954C158.345 201.444 157.323 200.94 157.084 199.271C156.922 198.14 157.71 196.383 158.834 195.366C161.841 192.644 161.457 188.648 156.286 168.881C152.384 153.962 151.859 150.865 152.786 148.255C154.273 144.072 154.157 142.147 152.378 141.464C149.972 140.541 148.147 141.739 146.422 145.374C145.224 147.898 143.861 149.023 141.095 149.768C139.051 150.319 135.128 151.453 132.378 152.287C125.88 154.259 125.137 154.216 124.378 151.826C123.947 150.469 122.865 149.826 121.011 149.826C117.715 149.826 115.878 151.464 115.878 154.404C115.878 157.373 114.075 158.646 106.686 160.892C98.8159 163.286 97.0109 163.276 93.8779 160.826C90.8549 158.461 88.5539 158.307 86.8539 160.355C85.7999 161.625 85.9909 162.32 87.9809 164.45C90.9229 167.6 95.055 169.826 97.958 169.826C102.984 169.826 116.135 165.388 118.978 162.733C121.676 160.212 121.975 160.139 122.858 161.789C123.384 162.771 124.111 165.432 124.474 167.701L125.134 171.826H120.187C107.049 171.826 88.8619 181.487 92.8819 186.331C93.5649 187.153 94.936 187.826 95.929 187.826C97.257 187.826 98.1239 189.22 99.1979 193.076C102.569 205.178 104.235 217.756 102.924 221.204C102.28 222.899 102.447 224.194 103.506 225.705C104.98 227.809 104.933 227.826 97.5979 227.826H90.205L86.4349 215.745C84.3609 209.101 82.308 200.888 81.873 197.495C81.437 194.102 79.932 186.376 78.528 180.326C71.487 149.993 64.778 108.463 64.594 94.0759C64.496 86.4689 64.2 84.8159 62.927 84.7709C62.075 84.7399 60.2569 83.2999 58.8869 81.5709C56.8469 78.9959 56.7279 78.5539 58.2299 79.1309C59.2379 79.5179 61.1469 80.1059 62.4709 80.4389C63.7949 80.7709 64.8779 81.6849 64.8779 82.4699C64.8779 83.6329 65.2869 83.6769 67.0959 82.7089C68.3169 82.0559 75.629 79.2839 83.346 76.5479C127.297 60.9689 170.128 48.5619 196.378 43.8069C201.878 42.8109 205.253 41.9669 203.878 41.9309C199.065 41.8059 167.477 47.6939 167.08 48.7899C166.916 49.2429 166.016 49.4149 165.08 49.1729C163.331 48.7189 132.58 57.2349 106.892 65.2859C87.7839 71.2749 86.6449 70.9499 104.878 64.7099C136.273 53.9659 192.508 38.7829 206.563 37.2549C212.48 36.6119 212.863 36.7069 215.409 39.4539C216.873 41.0339 218.44 42.3259 218.891 42.3259C219.342 42.3259 220.086 42.7359 220.545 43.2359C221.037 43.7739 220.813 43.8189 219.998 43.3469C219.049 42.7969 218.776 42.9809 219.123 43.9369C219.401 44.7009 220.038 45.2459 220.539 45.1469C221.04 45.0489 221.49 45.7239 221.54 46.6469C221.653 48.7269 230.866 68.8299 230.873 67.0099C230.876 66.2869 229.283 62.2369 227.333 58.0099C225.383 53.7839 224.427 51.0009 225.208 51.8259C226.977 53.6949 233.564 69.9189 238.199 83.8259C247.514 111.774 253.81 137.39 258.352 165.826C260.088 176.692 260.161 177.826 259.128 177.825C258.715 177.825 257.604 172.313 256.658 165.575C255.712 158.838 253.107 145.451 250.869 135.826C246.384 116.541 245.451 113.215 242.868 107.326C241.903 105.126 240.814 101.976 240.448 100.326C239.635 96.6559 234.676 83.6939 234.249 84.1209C234.08 84.2909 234.831 87.3309 235.918 90.8779C239.598 102.883 250.006 148.251 251.964 160.826C253.035 167.701 254.354 175.245 254.895 177.59C255.435 179.936 255.878 184.05 255.878 186.733C255.878 190.133 256.33 191.785 257.368 192.184C259.055 192.831 260.518 188.806 259.385 186.633C259.011 185.914 259.633 186.451 260.769 187.826C261.904 189.201 262.844 190.889 262.856 191.576C262.868 192.264 263.328 192.826 263.878 192.826C264.428 192.826 264.878 193.528 264.878 194.385C264.878 195.242 265.328 195.666 265.878 195.326C266.428 194.986 266.878 193.385 266.878 191.767C266.878 190.149 267.328 188.826 267.878 188.826C268.428 188.826 268.878 189.401 268.878 190.104C268.878 190.807 269.778 192.152 270.878 193.094C272.801 194.741 272.878 194.711 272.878 192.316C272.878 190.844 273.452 189.826 274.283 189.826C275.345 189.826 275.557 188.849 275.151 185.826C274.723 182.635 274.931 181.826 276.179 181.826C277.039 181.826 278.007 180.996 278.329 179.981C278.969 177.963 278.425 169.222 277.509 166.826C277.194 166.001 276.706 163.076 276.426 160.326C274.448 140.95 255.572 75.0099 245.224 51.3259C237.981 34.7499 227.936 22.3969 219.309 19.4569C213.667 17.5349 207.608 17.5169 195.58 19.3889ZM213.134 44.5759C213.995 45.5379 216.534 49.7009 218.775 53.8259C223.022 61.6429 224.436 62.8549 220.769 55.5359C217.484 48.9799 213.469 42.8299 212.473 42.8279C211.975 42.8269 212.273 43.6139 213.134 44.5759ZM200.259 46.7359C196.657 48.9309 194.947 52.9389 195.629 57.5849C196.063 60.5389 195.782 60.9679 192.524 62.3289C187.641 64.3699 187.297 64.2789 186.264 60.6779C185.768 58.9459 184.208 56.6679 182.799 55.6159C179.948 53.4879 174.374 52.9299 172.699 54.6049C171.02 56.2839 172.541 58.8259 175.224 58.8259C178.428 58.8259 179.402 60.1999 181.25 67.3259C183.599 76.3809 187.511 78.4439 197.222 75.7479C199.336 75.1609 201.185 74.8259 201.331 75.0029C201.477 75.1809 201.878 77.4769 202.222 80.1059C202.788 84.4259 202.632 84.9679 200.613 85.7229C194.147 88.1409 194.028 88.1219 192.463 84.3749C190.864 80.5479 187.814 78.8259 182.634 78.8259C180.921 78.8259 178.078 78.3049 176.315 77.6669C173.617 76.6909 171.804 76.8859 164.833 78.8999C150.959 82.9089 150.245 84.2079 154.016 98.5769C156.115 106.576 156.128 106.946 154.417 110.74C152.501 114.989 153.076 117.269 155.878 116.536C158.418 115.872 159.656 124.989 157.478 128.314C154.727 132.513 159.142 133.303 162.915 129.287C165.15 126.908 165.815 122.626 164.688 117.882C164.518 117.163 164.887 116.388 165.51 116.157C166.183 115.908 167.212 118.085 168.05 121.532C169.299 126.671 169.765 127.362 172.174 127.643C175.814 128.068 176.321 126.283 174.52 119.386C173.173 114.227 173.183 113.738 174.636 114.018C175.515 114.187 176.573 115.592 176.987 117.14C177.987 120.882 179.414 122.468 182.855 123.668C184.995 124.414 186.177 124.317 187.547 123.281C189.29 121.963 189.248 121.786 186.692 119.611C185.214 118.354 183.343 115.682 182.533 113.672C181.723 111.663 180.134 109.725 179.003 109.366C176.261 108.495 166.344 110.386 163.611 112.3C160.731 114.318 159.492 114.231 160.406 112.076C160.814 111.113 161.425 108.794 161.764 106.922C162.354 103.665 162.706 103.424 169.879 101.362L177.378 99.2059L181.127 103.016C183.834 105.768 185.718 106.826 187.908 106.826C191.57 106.826 193.175 104.01 190.438 102.39C189.45 101.805 187.763 100.644 186.69 99.8109C184.332 97.9789 180.512 85.1699 182.042 84.2249C183.825 83.1219 186.3 86.6689 187.866 92.5709C189.585 99.0479 192.263 101.202 197.628 100.423C201.721 99.8289 201.84 101.185 197.84 102.842C193.858 104.491 192.701 106.866 193.486 111.777C193.947 114.66 193.673 116.491 192.514 118.258C190.62 121.149 191.746 122.327 195.501 121.385C198.883 120.536 201.11 115.131 200.262 109.829C199.854 107.272 200.006 105.826 200.683 105.826C201.777 105.826 201.988 106.343 203.873 113.637C204.875 117.509 205.262 117.917 207.683 117.637C210.06 117.363 210.366 116.912 210.281 113.826C210.227 111.901 209.821 108.803 209.379 106.942C208.751 104.299 208.869 103.656 209.922 104.007C210.663 104.254 211.605 105.713 212.016 107.249C213.139 111.45 215.782 113.826 219.333 113.826C224.188 113.826 225.448 111.851 221.949 109.723C220.211 108.666 218.802 106.757 218.396 104.91C218.027 103.227 217.309 101.592 216.801 101.278C215.342 100.376 215.726 98.8259 217.409 98.8259C219.828 98.8259 220.456 95.7219 218.349 94.1809C215.909 92.3969 210.06 92.4649 202.736 94.3629C199.475 95.2079 196.372 95.6309 195.842 95.3039C193.871 94.0859 194.998 92.8709 199.128 91.7599C201.466 91.1309 204.655 89.9569 206.216 89.1499C208.883 87.7719 209.033 87.3559 208.716 82.2429C208.404 77.2229 208.607 76.6199 211.349 74.4329C213.917 72.3829 214.138 71.8439 212.976 70.4439C211.316 68.4439 205.747 68.3889 196.907 70.2829C193.347 71.0459 190.085 71.4539 189.657 71.1889C187.863 70.0799 189.213 68.9719 194.87 66.9089C201.884 64.3519 203.329 62.3169 202.423 56.2749C201.848 52.4409 202.035 51.8149 204.076 50.7389C207.16 49.1149 207.984 47.6589 206.698 46.1099C205.253 44.3679 203.931 44.4969 200.259 46.7359ZM154.545 59.4929C154.178 59.8589 153.878 61.1759 153.878 62.4179C153.878 64.0409 152.683 65.3339 149.628 67.0159C145.205 69.4509 144.146 71.7749 145.323 76.4619C146.493 81.1259 149.492 81.3519 162.477 77.7559C176.527 73.8649 179.316 71.8509 177.838 66.6659C177.314 64.8289 176.123 62.7639 175.191 62.0759C171.148 59.0949 160.189 62.0859 162.953 65.4159C163.596 66.1919 165.616 66.8259 167.441 66.8259C170.462 66.8259 172.77 68.2669 171.61 69.4269C171.352 69.6849 167.012 71.0749 161.964 72.5159C154.542 74.6349 152.557 74.8909 151.583 73.8559C150.645 72.8599 150.645 72.4779 151.58 72.1339C153.855 71.2969 159.192 67.3239 160.181 65.7309C161.83 63.0769 160.195 58.8259 157.526 58.8259C156.253 58.8259 154.911 59.1259 154.545 59.4929ZM230.909 59.3259C230.909 59.8759 231.345 61.0009 231.878 61.8259C232.411 62.6509 232.847 62.8759 232.847 62.3259C232.847 61.7759 232.411 60.6509 231.878 59.8259C231.345 59.0009 230.909 58.7759 230.909 59.3259ZM61.7579 64.1769C57.5669 66.0069 52.7409 68.4989 51.0329 69.7149C47.6709 72.1099 45.3819 77.7999 46.1449 81.8699C46.5149 83.8449 46.6319 83.6699 46.7419 80.9769C46.8169 79.1349 47.6119 76.0819 48.5079 74.1929C50.0769 70.8869 54.3219 68.3559 68.8779 62.0449C70.2529 61.4489 70.9279 60.9359 70.3779 60.9059C69.8279 60.8749 65.9489 62.3479 61.7579 64.1769ZM222.992 62.3259C223.011 62.8759 223.892 65.1259 224.95 67.3259C226.008 69.5259 226.593 70.2009 226.251 68.8259C225.546 65.9949 222.94 60.7959 222.992 62.3259ZM127.303 69.4259C124.516 72.8549 123.314 73.3299 101.878 79.4739C79.9419 85.7599 79.246 85.8919 74.096 84.7059C68.249 83.3609 66.2309 84.2119 67.2979 87.5739C67.9879 89.7469 71.024 91.3939 76.039 92.3149C80.233 93.0849 123.754 80.8439 128.604 77.5299C133.083 74.4689 135.694 69.5149 133.942 67.4029C131.969 65.0249 130.519 65.4669 127.303 69.4259ZM235.512 70.8259C235.849 72.2009 236.74 74.6759 237.491 76.3259C238.588 78.7349 238.737 78.8339 238.244 76.8259C237.907 75.4509 237.016 72.9759 236.265 71.3259C235.168 68.9169 235.019 68.8179 235.512 70.8259ZM226.9 72.0759C227.021 73.4419 236.757 102.031 236.809 101.172C236.901 99.6309 227.929 71.8259 227.339 71.8259C227.086 71.8259 226.888 71.9379 226.9 72.0759ZM249.964 74.3259C250.068 76.2199 251.734 79.4099 251.792 77.8259C251.823 77.0009 251.411 75.6509 250.878 74.8259C250.345 74.0009 249.933 73.7759 249.964 74.3259ZM252.033 80.8259C252.033 81.6509 252.863 84.5759 253.878 87.3259C254.893 90.0759 255.723 91.6509 255.723 90.8259C255.723 90.0009 254.893 87.0759 253.878 84.3259C252.863 81.5759 252.033 80.0009 252.033 80.8259ZM42.1499 85.8259C42.1499 88.3009 42.3449 89.3129 42.5839 88.0759C42.8219 86.8389 42.8219 84.8129 42.5839 83.5759C42.3449 82.3389 42.1499 83.3509 42.1499 85.8259ZM164.44 84.7209C158.708 86.3939 155.78 88.8399 159.545 88.8119C162.858 88.7879 173.228 85.2749 173.641 84.0369C174.176 82.4309 171.643 82.6199 164.44 84.7209ZM240.181 84.8259C240.418 85.6509 241.789 90.1509 243.226 94.8259C244.664 99.5009 247.43 108.726 249.372 115.326C251.315 121.926 252.644 125.526 252.327 123.326C251.481 117.461 243.093 89.0639 241.293 85.9749C240.445 84.5179 239.945 84.0009 240.181 84.8259ZM46.1979 90.8259C46.1979 94.4009 46.3799 95.8629 46.6009 94.0759C46.8229 92.2889 46.8229 89.3629 46.6009 87.5759C46.3799 85.7889 46.1979 87.2509 46.1979 90.8259ZM122.378 87.3149C108.464 90.5839 82.5289 98.4729 76.9909 101.121C73.3249 102.873 72.3779 103.839 72.3779 105.826C72.3779 109.65 75.077 109.418 89.3069 104.371C96.3529 101.871 102.289 99.8259 102.498 99.8259C102.707 99.8259 102.878 100.656 102.878 101.671C102.878 104.381 100.113 106.381 93.54 108.429C86.513 110.617 82.8779 114.371 82.8779 119.439C82.8779 121.342 83.821 126.658 84.9729 131.253L87.069 139.607L84.9469 144.404C83.0929 148.593 83.008 149.385 84.274 150.65C86.223 152.6 88.4529 151.572 90.8689 147.61C93.4809 143.325 93.468 136.415 90.831 126.899C89.705 122.837 88.9959 118.961 89.2549 118.286C89.5139 117.611 92.9999 115.808 97.0009 114.279C101.003 112.75 105.25 110.449 106.439 109.166C108.357 107.097 108.959 106.958 111.779 107.941C114.267 108.809 116.35 108.699 121.373 107.438C124.902 106.551 128.723 105.826 129.865 105.826C132.231 105.826 133.653 108.451 132.119 109.985C131.556 110.548 124.937 112.738 117.41 114.853C101.395 119.351 99.2079 120.55 98.3129 125.323C96.4569 135.212 108.87 139.363 132.747 136.84C146.075 135.431 148.899 134.739 150.285 132.543C151.081 131.281 150.949 130.469 149.755 129.275C148.37 127.889 147.347 127.841 141.772 128.895C138.255 129.56 129.207 130.154 121.665 130.215C110.143 130.308 107.688 130.062 106.297 128.672C105.386 127.762 104.912 126.58 105.243 126.044C105.574 125.509 111.984 123.363 119.488 121.277C135.995 116.688 138.878 114.749 138.878 108.237C138.878 99.9239 133.828 97.5969 121.77 100.351C114.192 102.081 113.818 102.082 111.909 100.354C110.818 99.3669 110.133 98.2219 110.388 97.8099C110.904 96.9749 130.753 92.0199 135.277 91.5969C138.939 91.2549 140.794 88.6339 138.948 86.4099C137.225 84.3339 134.414 84.4869 122.378 87.3149ZM166.128 92.9549C162.691 94.0239 159.878 95.3049 159.878 95.8029C159.878 97.7949 162.248 97.8939 168.904 96.1799C174.248 94.8029 175.878 93.9669 175.878 92.6049C175.878 90.3919 174.181 90.4529 166.128 92.9549ZM255.957 94.4089C256.005 95.5739 256.242 95.8109 256.561 95.0139C256.85 94.2919 256.814 93.4289 256.482 93.0969C256.15 92.7649 255.914 93.3549 255.957 94.4089ZM208.385 98.8149C208.035 99.3809 208.436 99.5489 209.326 99.2079C211.058 98.5429 211.375 97.8259 209.937 97.8259C209.419 97.8259 208.721 98.2709 208.385 98.8149ZM257.964 101.326C258.068 103.22 259.734 106.41 259.792 104.826C259.823 104.001 259.411 102.651 258.878 101.826C258.345 101.001 257.933 100.776 257.964 101.326ZM259.957 108.409C260.005 109.574 260.242 109.811 260.561 109.014C260.85 108.292 260.814 107.429 260.482 107.097C260.15 106.765 259.914 107.355 259.957 108.409ZM250.957 109.409C251.005 110.574 251.242 110.811 251.561 110.014C251.85 109.292 251.814 108.429 251.482 108.097C251.15 107.765 250.914 108.355 250.957 109.409ZM256.926 108.826C256.888 110.243 260.825 124.1 261.426 124.666C261.811 125.029 261.862 124.426 261.539 123.326C261.216 122.226 260.467 119.116 259.874 116.415C258.971 112.294 256.97 107.146 256.926 108.826ZM251.878 112.743C251.878 113.43 252.749 117.443 253.813 121.659C256.461 132.148 263.878 169.199 263.878 171.938C263.878 173.16 264.168 173.869 264.523 173.514C264.878 173.16 264.609 168.697 263.926 163.598C261.517 145.612 251.878 104.927 251.878 112.743ZM261.905 115.326C261.887 115.876 262.734 119.476 263.787 123.326C264.841 127.176 266.456 133.814 267.376 138.076C269.078 145.962 270.505 148.906 269.315 142.076C267.135 129.564 262.044 111.187 261.905 115.326ZM222.091 121.014C221.424 121.68 220.878 124.3 220.878 126.835C220.878 129.37 220.316 132.16 219.628 133.036C218.225 134.823 200.317 140.215 198.832 139.298C198.308 138.973 197.875 138.172 197.872 137.517C197.869 136.862 197.398 134.639 196.825 132.576C196 129.604 195.297 128.826 193.438 128.826C190.333 128.826 189.642 131.004 191.017 136.463C191.67 139.059 191.774 141.304 191.263 141.779C189.797 143.143 172.711 147.699 171.215 147.125C170.451 146.832 168.655 144.596 167.225 142.156C165.263 138.807 164.105 137.794 162.502 138.023C159.6 138.437 159.31 141.793 161.761 146.596C164.161 151.3 167.702 153.826 171.897 153.826C173.596 153.826 179.034 152.688 183.981 151.297C188.928 149.906 193.403 149.033 193.927 149.356C194.875 149.942 195.287 152.826 194.423 152.826C194.172 152.826 189.785 154.008 184.673 155.454C170.121 159.567 168.39 162.297 172.104 175.275C174.054 182.094 174.841 183.494 177.63 185.119C180.695 186.904 181.151 186.921 185.558 185.419C191.52 183.388 193.878 183.399 193.878 185.458C193.878 187.669 186.466 194.701 180.561 198.092C176.759 200.275 175.81 201.329 176.061 203.092C176.787 208.204 183.838 205.814 192.667 197.465C201.122 189.468 202.802 184.541 198.805 179.461C196.401 176.405 193.509 176.13 186.366 178.28C183.71 179.079 181.175 179.51 180.733 179.237C179.773 178.643 176.878 169.213 176.878 166.68C176.878 164.294 195.803 158.105 197.056 160.081C198.449 162.278 197.39 163.141 191.128 164.906C183.667 167.01 182.878 167.467 182.878 169.685C182.878 173.286 184.756 173.72 191.725 171.727C195.381 170.681 198.646 169.826 198.982 169.826C199.318 169.826 200.809 174.439 202.295 180.076C206.444 195.817 206.838 196.826 208.833 196.826C212.96 196.826 213.049 194.623 209.467 181.207C207.576 174.122 206.332 168.055 206.703 167.723C207.074 167.392 209.628 166.535 212.378 165.82C219.282 164.023 220.878 163.073 220.878 160.759C220.878 157.755 218.233 157.313 211.307 159.159C203.573 161.219 203.878 161.232 203.878 158.865C203.878 157.395 204.944 156.629 208.128 155.809C210.466 155.208 214.532 154.024 217.164 153.178C222.966 151.315 224.192 152.044 225.767 158.299C227.74 166.135 227.545 166.535 220.838 168.417C210.756 171.246 208.076 177.224 214.162 183.31C218.409 187.557 230.603 190.603 237.792 189.213C241.745 188.448 242.421 187.958 242.686 185.662C243.064 182.392 241.852 181.969 232.339 182.056C227.577 182.099 224.1 181.551 221.589 180.359C215.856 177.639 216.198 177.196 226.979 173.396C234.306 170.813 235.414 166.324 231.555 154.859C229.836 149.752 228.698 148 226.143 146.526C222.927 144.67 222.848 144.677 212.313 147.616C203.482 150.08 201.626 150.332 201.165 149.132C200.32 146.929 201.595 146.25 212.162 143.282C223.394 140.127 226.332 137.649 227.417 130.415C228.406 123.818 225.108 117.996 222.091 121.014ZM258.957 127.409C259.005 128.574 259.242 128.811 259.561 128.014C259.85 127.292 259.814 126.429 259.482 126.097C259.15 125.765 258.914 126.355 258.957 127.409ZM262.048 140.326C262.032 141.426 262.405 143.226 262.878 144.326C263.973 146.874 263.973 144.245 262.878 140.826C262.234 138.816 262.072 138.718 262.048 140.326ZM136.584 158.054C129.818 160.142 129.793 160.163 130.451 163.238C130.814 164.936 131.268 166.498 131.46 166.708C132.216 167.537 146.143 163.3 146.603 162.101C147.364 160.118 145.983 155.818 144.609 155.892C143.932 155.928 140.321 156.901 136.584 158.054ZM141.007 171.894C137.503 172.906 134.411 173.959 134.137 174.234C133.862 174.508 133.945 176.37 134.321 178.372C135.082 182.429 134.495 182.389 145.733 179.161C150.931 177.668 151.07 177.535 150.483 174.6C150.15 172.937 149.878 171.182 149.878 170.701C149.878 169.536 148.549 169.714 141.007 171.894ZM124.214 180.484C124.505 181.497 125.724 185.926 126.924 190.326C129.624 200.229 133.791 210.826 134.984 210.826C135.476 210.826 135.878 210.473 135.878 210.042C135.878 209.61 137.186 208.485 138.784 207.541C142.361 205.427 141.99 202.097 138.125 201.633C134.446 201.19 132.122 197.423 129.599 187.811C127.923 181.429 126.925 179.264 125.531 178.997C124.144 178.73 123.816 179.1 124.214 180.484ZM144.005 186.858C140.5 187.892 137.45 188.92 137.227 189.143C137.004 189.366 137.261 190.704 137.798 192.116C138.469 193.88 139.65 194.784 141.576 195.005C143.749 195.254 144.827 196.271 146.378 199.536C148.918 204.884 150.383 204.491 150.018 198.561C149.781 194.713 150.14 193.585 152.157 191.831C153.869 190.343 154.444 189.004 154.113 187.275C153.559 184.376 152.562 184.335 144.005 186.858Z" fill="black"/>
</svg>