<svg width="362" height="216" viewBox="0 0 362 216" fill="none" xmlns="http://www.w3.org/2000/svg" id="svg260959741_6816">
<g clip-path="url(#svg260959741_6816_clip0_317_55)">
<path fill-rule="evenodd" clip-rule="evenodd" d="M169.5 15.603C167.3 16.397 164.419 17.878 163.097 18.894L160.694 20.74L170.44 32.976C175.801 39.706 180.525 44.828 180.937 44.356C182.132 42.992 197.364 23.748 198.815 21.769C200.006 20.145 199.535 19.695 193.815 16.989C188.586 14.515 186.296 14.015 180.5 14.08C176.65 14.123 171.7 14.808 169.5 15.603ZM177.474 53.05C175.763 56.359 176.217 59.486 178.538 60.376C180.634 61.18 182.829 60.113 183.513 57.958C184.155 55.936 181.534 50 180 50C179.478 50 178.342 51.372 177.474 53.05ZM165.225 81.057L165.5 97.114L180.25 97.307L195 97.5V92.75C195 89.276 195.388 88 196.444 88C197.239 88 199.129 86.933 200.644 85.63C204.281 82.501 204.472 77.011 201.047 74.041C199.753 72.918 197.863 72 196.847 72C195.403 72 195 71.237 195 68.5V65H179.975H164.95L165.225 81.057ZM195.673 74.66C194.703 75.63 194.842 84.785 195.837 85.399C196.297 85.684 197.673 85.217 198.893 84.362C200.519 83.223 201.031 81.995 200.806 79.767C200.505 76.781 197.02 73.313 195.673 74.66Z" fill="black"/>
<path fill-rule="evenodd" clip-rule="evenodd" d="M69.9721 143.064C63.3391 158.03 59.7991 164.832 57.7421 166.564C54.3961 169.379 52.7471 169.605 50.9921 167.49C49.9641 166.251 50.3331 164.59 53.0481 158.24C57.0981 148.766 57.6571 148 60.5151 148C63.3981 148 64.5141 145.226 62.5191 143.021C61.2601 141.629 61.1941 140.743 62.1461 138.012C63.1471 135.139 63.0581 134.516 61.4831 133.364C59.2001 131.695 57.8891 132.702 55.5271 137.94C54.0731 141.164 53.1691 141.948 50.6221 142.196C46.8691 142.561 45.7081 146.082 48.8471 147.576C50.7141 148.465 50.6591 148.787 47.4241 156C43.4171 164.933 43.2111 167.971 46.3621 171.635C48.5011 174.121 49.3771 174.387 55.6121 174.441L62.5001 174.5L65.0101 169.357C68.6801 161.837 74.6861 153.477 78.5181 150.554C84.9801 145.625 86.0591 147.661 82.0471 157.211C78.3351 166.045 78.0711 171.236 81.2231 173.443C84.2801 175.585 86.9331 175.398 92.0771 172.678C96.3461 170.42 96.5091 170.408 97.9841 172.228C101.086 176.059 111.669 176.67 118.15 173.393C124.393 170.235 131.133 158.936 127.948 156.968C125.998 155.763 124.662 156.687 121.973 161.104C117.31 168.761 107.34 172.34 102.938 167.938C100.412 165.412 100.854 163.589 104.078 163.23C110.831 162.478 113.204 161.7 116.057 159.299C122.145 154.176 122.38 146.892 116.536 144.45C109.559 141.535 101.659 146.962 96.1791 158.434C94.5301 161.888 91.9381 165.69 90.4211 166.884C84.7191 171.369 83.6251 167.309 87.9601 157.748C91.6401 149.632 91.7281 147.637 88.5451 144.455C85.7121 141.622 83.6591 141.408 79.6011 143.524C78.0071 144.355 76.6051 144.915 76.4871 144.768C76.3681 144.621 78.2621 139.888 80.6951 134.25C83.1281 128.613 84.8401 123.551 84.5001 123C84.1601 122.45 82.8521 122 81.5941 122C79.5781 122 78.1971 124.503 69.9721 143.064ZM274.425 138.765C273.834 139.169 271.414 142.425 269.047 146C266.681 149.575 263.227 153.94 261.373 155.699C259.322 157.644 258 159.863 258 161.36C258 163.7 253.091 169 250.923 169C249.602 169 249.515 169.253 255.052 156.981C257.831 150.822 259.964 145.044 259.792 144.142C259.255 141.32 255.176 141.519 253.849 144.432C252.44 147.524 251.854 147.601 249.5 145C247.332 142.604 241.229 142.309 237.2 144.405C233.186 146.494 230.606 149.717 226.718 157.5C222.848 165.246 220.539 167.818 217.088 168.227C212.378 168.785 212.312 165.857 216.813 156.17C221.289 146.535 221.883 143.553 219.507 142.641C217.417 141.839 216.532 143.054 210.145 155.5C204.426 166.644 201.327 169.83 197.6 168.4C195.153 167.461 195.642 164.812 200 155.378C204.33 146.007 204.575 144.975 202.878 143.278C200.723 141.123 198.895 143.322 193.478 154.589C187.985 166.016 184.673 169.856 181.394 168.598C179.445 167.85 179.803 165.857 183.382 157.5C186.494 150.235 186.623 147.623 184 145C181.591 142.591 177.029 142.416 172.859 144.573C170.094 146.003 169.661 146.003 168.08 144.573C166.081 142.764 162.317 142.549 158.442 144.022C156.252 144.855 155.509 144.716 154.435 143.272C153.429 141.919 152.715 141.746 151.417 142.541C149.273 143.853 136.694 171.761 137.408 173.622C137.699 174.38 138.82 175 139.899 175C141.333 175 143.022 172.812 146.18 166.862C151.193 157.419 158.555 149 161.801 149C163.01 149 164.005 149.563 164.012 150.25C164.018 150.938 161.933 156.082 159.379 161.683C154.669 172.009 154.342 175 157.922 175C159.413 175 161.091 172.704 164.683 165.75C171.3 152.936 177.352 146.525 179.52 150.033C179.872 150.601 178.773 154.395 177.08 158.464C173.557 166.925 173.216 170.981 175.829 173.345C178.282 175.565 183.781 175.431 187.677 173.056C190.387 171.403 191.026 171.326 192.027 172.533C194.201 175.152 199.611 175.405 204.043 173.095C207.677 171.2 208.278 171.135 209.627 172.485C213.063 175.92 220.765 175.128 224.546 170.95C226.314 168.996 226.361 169.008 228.925 172.079C230.927 174.477 232.369 175.208 235.259 175.29C237.316 175.349 239 175.466 239 175.551C239 175.637 235.891 177.774 232.091 180.301C220.595 187.945 217.099 194.926 222.314 199.826C227.875 205.05 235.564 199.847 241.269 187C244.079 180.671 245.367 179.373 254.03 174.135L260.362 170.306L263.821 172.653C267.626 175.236 270.418 175.56 274.685 173.915C276.233 173.318 278.975 172.686 280.778 172.512C282.58 172.337 285.177 171.459 286.547 170.561C289.477 168.641 295 161.302 295 159.329C295 158.574 296.129 157.443 297.51 156.814C299.667 155.831 300.369 155.998 302.51 158.009C303.879 159.296 305 161.186 305 162.209C305 163.76 305.333 163.892 307 163C309.767 161.519 309.505 159.659 306.042 156.196C299.875 150.029 293.223 151.62 287.452 160.643C285.567 163.589 283.67 166 283.236 166C282.802 166 282.611 164.278 282.812 162.174C283.039 159.791 282.178 155.454 280.529 150.676C279.072 146.456 278.171 142.532 278.526 141.958C278.881 141.383 278.628 140.257 277.964 139.456C276.609 137.824 275.982 137.701 274.425 138.765ZM109.804 150.036C108.872 150.587 107.154 152.38 105.986 154.019L103.864 157H107.432C109.702 157 111.75 156.25 113.061 154.939C116.621 151.379 114.059 147.521 109.804 150.036ZM237.941 151.703C234.352 154.723 232 159.5 232 163.768C232 170.006 238.053 170.982 242.851 165.517C251.665 155.478 247.472 143.683 237.941 151.703ZM269.483 157.028C264.14 166.142 264.206 168.252 269.851 168.813C272.919 169.119 273 169.022 273 165.054C273 162.218 273.608 160.46 275 159.268C277.361 157.246 277.447 156.292 275.651 152.02L274.301 148.811L269.483 157.028ZM305.182 171.496C301.57 176.088 302.767 181 307.5 181C312.3 181 313.477 175.829 309.682 171.417L307.364 168.722L305.182 171.496ZM230.003 188.616C226.099 192.143 225.098 194.325 226.879 195.425C227.99 196.112 232.729 191.424 234.619 187.771C236.598 183.944 234.813 184.271 230.003 188.616Z" fill="black"/>
</g>
<defs>
<clipPath id="svg260959741_6816_clip0_317_55">
<rect width="362" height="216" fill="white"/>
</clipPath>
</defs>
</svg>