<svg width="700" height="256" viewBox="0 0 700 256" fill="none" xmlns="http://www.w3.org/2000/svg" id="svg-1384441487_17887">
<path fill-rule="evenodd" clip-rule="evenodd" d="M98.2334 51.0851C85.6441 53.8309 75.0648 64.12 72.5131 76.0993C69.9968 87.9125 76.2707 100.944 87.1734 106.551C92.1257 109.098 95.7125 110.228 102.952 111.521C114.8 113.637 117.892 114.803 121.747 118.611C125.623 122.44 127.065 127.737 126.036 134.368C125.113 140.32 122.972 143.029 116.924 145.892C112.142 148.157 107.748 148.735 102.298 147.816C97.0173 146.925 92.7314 144.984 89.6192 142.072C86.6232 139.271 85.0085 135.847 84.3277 130.854L83.7933 126.933H77.5965C70.4859 126.933 71.1159 126.323 71.8863 132.469C73.6163 146.265 82.3966 155.757 96.7765 159.374C115.474 164.077 134.638 154.649 137.928 139.128C138.713 135.424 138.802 126.553 138.088 123.106C137.098 118.323 134.593 113.96 130.483 109.859C124.331 103.72 121.186 102.35 107.012 99.6347C93.78 97.0993 89.4778 94.7403 86.024 88.1253C84.9007 85.9754 84.7211 85.0883 84.7113 81.6597C84.7015 78.1037 84.8601 77.3603 86.2251 74.5859C88.1315 70.7093 92.1303 66.8939 96.4853 64.7962C99.2134 63.4821 100.237 63.2539 104.158 63.0868C109.638 62.8525 113.594 63.8778 117.853 66.6344C122.903 69.9039 125.642 74.0945 126.579 79.9848L127.122 83.3952L132.978 84.112C136.198 84.5063 138.923 84.7453 139.033 84.6431C139.535 84.1736 138.97 77.7023 138.143 74.4716C135.13 62.6911 125.307 53.7983 112.37 51.1392C108.096 50.2609 102.116 50.2381 98.2334 51.0851ZM433.171 96.25L433.303 138.833L434.354 141.596C437.428 149.68 443.633 155.621 451.984 158.478C454.934 159.487 456.83 159.793 461.183 159.965L466.667 160.182V153.824V147.467H462.251C458.928 147.467 457.196 147.228 455.253 146.5C451.836 145.222 447.986 141.682 446.545 138.493L445.433 136.033V114.8V93.5667L455.7 93.4771L465.967 93.3875L466.097 87.3026L466.227 81.2177L455.83 81.0922L445.433 80.9667L445.31 67.3167L445.186 53.6667H439.112H433.039L433.171 96.25ZM149.333 106.867V159.6H155.633H161.933V106.867V54.1333H155.633H149.333V106.867ZM281.961 86.8005C282.038 90.9076 282.022 94.2676 281.926 94.2671C281.831 94.2671 280.459 93.0566 278.878 91.5782C275.465 88.3848 270.846 85.8517 265.746 84.3747C262.501 83.4353 261.035 83.3028 254.1 83.3205C246.466 83.3406 246.013 83.3957 242.093 84.7747C232.954 87.99 226.658 93.6189 222.157 102.599C219.606 107.689 218.727 111.86 218.702 119C218.678 125.816 219.144 128.709 221.25 134.827C223.605 141.668 226.267 145.453 231.842 149.883C236.117 153.28 241.621 156.104 246.297 157.3C253.25 159.078 263.601 158.229 269.687 155.381C274.56 153.101 274.4 153.412 274.4 146.179V139.903L272.749 141.352C265.663 147.574 253.272 148.299 244.501 143.003C241.631 141.271 237.881 137.537 235.971 134.511C235.29 133.433 234.179 130.919 233.501 128.926C231.89 124.18 231.792 117.556 233.266 112.933C236.664 102.272 245.917 95.2453 256.6 95.2121C266.392 95.1818 274.379 99.8256 278.677 108.048C281.891 114.197 281.867 113.971 281.867 137.985V159.6H288.4H294.933V119.467V79.3333H288.378H281.822L281.961 86.8005ZM615.533 86.8392V94.3451L612.775 91.8559C605.567 85.3496 596.984 82.6271 585.49 83.2006C575.253 83.7116 567.887 87.024 561.535 93.9741C554.647 101.511 551.704 110.21 552.203 121.563C552.513 128.624 553.8 133.815 556.724 139.802C560.073 146.66 568.198 153.302 577.16 156.509C581.1 157.919 581.478 157.966 588.7 157.934C595.412 157.904 596.53 157.78 599.764 156.706C601.742 156.049 604.304 154.959 605.455 154.284L607.55 153.057L607.692 146.761C607.769 143.298 607.809 140.465 607.778 140.466C607.748 140.466 606.324 141.406 604.612 142.553C592.378 150.757 575.188 146.162 568.686 132.951C563.397 122.204 565.136 110.431 573.184 102.489C578.474 97.2687 583.356 95.1935 590.315 95.207C602.138 95.2299 610.997 101.94 614.554 113.566C615.488 116.616 615.533 117.761 615.533 138.182V159.6H622.067H628.6V119.467V79.3333H622.067H615.533V86.8392ZM325.636 80.5107C317.154 82.1991 310.423 87.9928 307.147 96.4231L305.9 99.6333L305.764 129.617L305.628 159.6H311.714H317.8V132.922C317.8 115.698 317.981 105.203 318.311 103.31C318.894 99.9581 320.678 96.8329 323.033 95.0371C326.046 92.7388 327.901 92.4 337.459 92.4H346.267V86.1V79.8L337.517 79.8439C332.276 79.87 327.511 80.1379 325.636 80.5107ZM169.594 81.1613C169.487 81.2681 169.4 84.0504 169.4 87.3446V93.3333H176.555C184.961 93.3333 188.168 93.8765 191.424 95.8515C194.375 97.6407 196.213 100.71 196.904 105C197.202 106.847 197.394 118.118 197.396 133.817L197.4 159.6H203.467H209.533V131.919C209.533 114.315 209.352 103.23 209.035 101.469C208.256 97.1483 205.269 91.4158 202.246 88.4403C199.153 85.3967 194.489 82.9481 189.819 81.9168C186.719 81.2322 170.141 80.6129 169.594 81.1613ZM375.433 81.4184C360.725 84.6272 349.24 95.6489 345.269 110.367C343.844 115.645 343.844 124.698 345.269 129.941C348.975 143.592 359.497 154.362 372.885 158.209C377.875 159.643 385.963 159.961 391.094 158.925C400.816 156.962 409.379 151.673 415.139 144.073C417.185 141.374 421.4 133.332 421.4 132.129C421.4 131.76 419.444 131.6 414.933 131.6H408.466L406.777 134.337C403.033 140.403 395.956 145.297 388.733 146.816C382.8 148.063 375.662 146.892 370.293 143.791C364.064 140.194 358.884 133.431 357.291 126.817L356.982 125.533H389.833H422.683L422.975 124.075C423.801 119.948 422.725 111.507 420.679 106.058C416.068 93.7762 404.761 84.1153 391.903 81.4725C387.588 80.5859 379.373 80.5588 375.433 81.4184ZM500.267 81.6097C481.763 85.6632 468.517 103.139 469.627 122.033C469.778 124.6 470.247 128.065 470.671 129.733C471.591 133.364 474.383 139.533 476.514 142.647C487.056 158.052 508.249 163.889 525.315 156.09C534.918 151.702 542.244 143.995 545.824 134.517L546.925 131.6H540.403H533.881L531.967 134.631C527.208 142.166 517.796 147.45 509.133 147.45C505.781 147.45 500.806 146.205 497.066 144.429C490.622 141.368 483.948 133.286 482.716 127.05L482.417 125.533H515.375H548.333L548.425 123.317C548.755 115.363 547.451 108.663 544.362 102.433C539.505 92.638 530.538 85.2105 519.825 82.1105C514.84 80.668 505.641 80.4328 500.267 81.6097ZM377.161 93.8103C372.018 95.1575 368.432 97.2585 364.467 101.247C361.079 104.653 358.413 108.914 357.666 112.117L357.365 113.4H383.55C413.294 113.4 410.687 113.834 408.548 109.239C402.811 96.915 389.773 90.5063 377.161 93.8103ZM502.295 93.793C498.234 94.8579 496.206 95.8631 492.5 98.6487C488.209 101.875 483.982 107.905 483.172 111.958L482.883 113.4H509.125H535.368L535.05 112.117C533.622 106.342 527.399 98.9833 521.385 95.9579C515.162 92.827 508.753 92.1004 502.295 93.793ZM395.617 179.54L393.867 179.723V192.061V204.4H398.782C404.336 204.4 406.116 203.872 407.961 201.68C410.525 198.633 409.932 194.111 406.721 192.217L405.062 191.238L406.22 190.327C407.887 189.016 408.628 186.224 407.929 183.89C407.243 181.601 405.453 180.271 402.241 179.662C399.824 179.203 398.982 179.188 395.617 179.54ZM435.4 191.791V203.916L436.683 204.268C437.389 204.463 439.647 204.624 441.7 204.628C444.791 204.632 445.731 204.449 447.16 203.56C449.872 201.873 451.033 199.6 451.033 195.979C451.033 192.51 450.255 190.907 447.858 189.446C446.199 188.434 441.596 188.181 440.036 189.016C439.17 189.48 439.133 189.299 439.133 184.583V179.667H437.267H435.4V191.791ZM456.4 191.75C456.4 205.496 455.949 204.224 460.989 204.687C468.017 205.332 472.228 202.034 472.256 195.86C472.269 193.222 471.448 191.438 469.448 189.756C468.207 188.712 467.553 188.533 464.967 188.533C463.302 188.533 461.532 188.751 461.036 189.016C460.17 189.48 460.133 189.299 460.133 184.583V179.667H458.267H456.4V191.75ZM477.867 192.033V204.4H479.5H481.133V192.033V179.667H479.5H477.867V192.033ZM488.017 182.504C486.881 183.165 486.977 185.115 488.177 185.757C490.59 187.048 492.999 184.512 490.941 182.846C489.76 181.889 489.187 181.822 488.017 182.504ZM516.017 182.504C514.881 183.165 514.977 185.115 516.177 185.757C518.59 187.048 520.999 184.512 518.941 182.846C517.76 181.889 517.187 181.822 516.017 182.504ZM397.6 186.2V189.933H399.674C401.959 189.933 403.986 188.575 404.202 186.9C404.571 184.04 402.883 182.467 399.445 182.467H397.6V186.2ZM184.967 188.063C182.807 188.934 181.805 192.024 182.973 194.207C183.251 194.727 184.607 195.652 185.986 196.261C187.364 196.871 188.848 197.914 189.284 198.578C190.037 199.728 190.03 199.848 189.141 201.043C188.083 202.467 185.519 202.951 183.827 202.046C183.03 201.619 182.729 201.638 182.414 202.135C182.195 202.482 182.011 202.908 182.007 203.08C181.992 203.773 185.429 204.482 187.382 204.189C190.816 203.674 192.826 200.189 191.316 197.367C191.05 196.869 189.572 195.826 188.032 195.049C184.664 193.349 183.72 191.851 185.075 190.354C185.822 189.529 186.361 189.403 188.416 189.574C190.499 189.746 190.867 189.657 190.867 188.976C190.867 187.708 187.238 187.146 184.967 188.063ZM168.467 196V203.933H173.133C176.97 203.933 177.8 203.809 177.8 203.233C177.8 202.673 177.1 202.533 174.3 202.533H170.8V199.5V196.467H173.833C176.555 196.467 176.867 196.371 176.867 195.533C176.867 194.696 176.555 194.6 173.833 194.6H170.8V192.033V189.467H174.067C176.66 189.467 177.333 189.322 177.333 188.767C177.333 188.194 176.53 188.067 172.9 188.067H168.467V196ZM195.222 188.767C195.222 189.301 195.81 189.467 197.711 189.467H200.2V196.7V203.933H201.367H202.533V196.7V189.467H204.867C206.63 189.467 207.2 189.295 207.2 188.767C207.2 188.181 206.223 188.067 201.211 188.067C196.199 188.067 195.222 188.181 195.222 188.767ZM235.814 188.727C231.253 190.779 232.295 198.333 237.139 198.333C238.16 198.333 239.401 198.116 239.898 197.85C241.337 197.079 241.034 198.501 239.35 200.42C238.327 201.585 237.363 202.158 236.083 202.362C234.723 202.58 234.267 202.872 234.267 203.526C234.267 204.561 235.183 204.615 237.681 203.724C239.923 202.924 241.122 201.845 242.274 199.587C243.267 197.642 243.519 193.32 242.755 191.333C241.725 188.651 238.595 187.476 235.814 188.727ZM250.781 188.524C247.773 189.74 246.676 194.918 248.946 197.188C249.81 198.052 250.588 198.333 252.119 198.333C253.234 198.333 254.395 198.085 254.699 197.781C255.582 196.898 255.874 197.679 255.193 199.097C254.43 200.683 251.794 202.533 250.298 202.533C249.503 202.533 249.2 202.797 249.2 203.488C249.2 204.336 249.395 204.407 250.95 204.126C255.52 203.298 258.067 199.942 258.067 194.749C258.067 189.82 254.697 186.942 250.781 188.524ZM265.3 188.41C263.677 188.819 262.759 189.686 263.197 190.396C263.523 190.923 263.833 190.94 264.822 190.49C267.509 189.266 269.733 190.362 269.733 192.91C269.733 194.842 268.723 196.411 265.348 199.723C263.653 201.386 262.267 203.014 262.267 203.34C262.267 203.784 263.558 203.933 267.4 203.933C271.652 203.933 272.533 203.813 272.533 203.233C272.533 202.678 271.86 202.533 269.267 202.533C267.47 202.533 266 202.409 266 202.257C266 202.104 267.148 200.711 268.551 199.161C269.954 197.611 271.34 195.622 271.631 194.74C273.069 190.383 269.929 187.243 265.3 188.41ZM283.733 188.767C283.733 189.295 284.304 189.467 286.067 189.467H288.4V196.7V203.933H289.567H290.733V196.7V189.467H293.222C295.123 189.467 295.711 189.301 295.711 188.767C295.711 188.181 294.735 188.067 289.722 188.067C284.71 188.067 283.733 188.181 283.733 188.767ZM301.467 195.621C300.055 199.775 298.83 203.345 298.745 203.554C298.659 203.763 299.093 203.933 299.709 203.933C300.659 203.933 300.954 203.539 301.645 201.345L302.461 198.757L305.344 198.895L308.226 199.033L309.105 201.483C309.817 203.469 310.186 203.933 311.052 203.933C312.103 203.933 312.078 203.81 309.485 196C306.851 188.068 306.85 188.067 305.442 188.067C304.039 188.067 304.024 188.095 301.467 195.621ZM316.867 196V203.933H318.033H319.2V196V188.067H318.033H316.867V196ZM323.867 188.345C323.867 188.498 324.746 192.078 325.82 196.301C327.737 203.834 327.796 203.976 328.968 203.839C330.085 203.709 330.273 203.29 331.859 197.4C332.793 193.935 333.667 191.415 333.802 191.8C333.937 192.185 334.63 195.083 335.342 198.24C336.6 203.821 336.668 203.975 337.817 203.84C338.922 203.709 339.142 203.202 341.22 196C342.441 191.765 343.447 188.247 343.454 188.183C343.461 188.119 342.963 188.067 342.348 188.067C341.299 188.067 341.132 188.46 339.683 194.362C338.833 197.824 338.004 200.502 337.842 200.312C337.679 200.122 336.951 197.289 336.225 194.017C334.937 188.221 334.872 188.067 333.665 188.067C332.463 188.067 332.379 188.256 330.849 194.367C329.982 197.832 329.134 200.667 328.964 200.667C328.794 200.667 328.528 199.879 328.372 198.917C328.216 197.954 327.615 195.119 327.037 192.617C326.087 188.506 325.883 188.067 324.926 188.067C324.344 188.067 323.867 188.192 323.867 188.345ZM349.449 196C346.855 203.81 346.831 203.933 347.882 203.933C348.747 203.933 349.117 203.469 349.831 201.483L350.711 199.033H353.5H356.289L357.169 201.483C357.883 203.469 358.253 203.933 359.118 203.933C360.169 203.933 360.145 203.81 357.551 196L354.917 188.067H353.5H352.083L349.449 196ZM364.933 196C364.933 203.916 364.936 203.933 365.983 203.934C367.007 203.935 367.03 203.828 366.887 199.601C366.807 197.218 366.807 194.225 366.887 192.95L367.033 190.633L368.2 192.763C368.842 193.935 370.627 196.919 372.167 199.396C374.343 202.896 375.201 203.903 376.017 203.917C377.065 203.933 377.067 203.921 377.067 196C377.067 188.279 377.041 188.067 376.097 188.067C375.156 188.067 375.132 188.25 375.281 194.405C375.365 197.891 375.268 200.464 375.066 200.122C374.864 199.78 373.11 196.928 371.169 193.783C367.968 188.597 367.515 188.067 366.287 188.067H364.933V196ZM221.083 189.354C220.378 189.791 219.8 190.521 219.8 190.975C219.8 191.991 219.996 191.999 221.45 191.046L222.6 190.293V197.113V203.933H223.767H224.933V196.233V188.533L223.65 188.546C222.944 188.552 221.789 188.916 221.083 189.354ZM414.867 194.878C414.867 199.96 415.021 201.485 415.644 202.538C417.036 204.895 420.271 205.546 423.624 204.145C424.741 203.678 425.41 203.596 425.515 203.911C425.605 204.18 426.493 204.4 427.489 204.4H429.299L429.199 196.583L429.1 188.767H427.233H425.367L425.237 194.67L425.106 200.573L423.533 201.32C421.57 202.251 420.943 202.254 419.637 201.34C418.656 200.653 418.6 200.286 418.6 194.573V188.533H416.733H414.867V194.878ZM487.667 196.467V204.4H489.533H491.4V196.467V188.533H489.533H487.667V196.467ZM500.968 189.268C498.826 190.386 498.037 191.266 497.19 193.482C495.718 197.336 496.783 201.284 499.926 203.631C501.673 204.935 505.784 205.203 508.446 204.187C510.36 203.456 510.533 203.256 510.533 201.783V200.176L509.062 200.937C508.253 201.355 506.591 201.728 505.367 201.765C503.602 201.819 502.897 201.601 501.946 200.709C499.562 198.471 499.941 193.408 502.595 192.036C504.293 191.158 507.133 191.156 508.667 192.033C510.348 192.995 510.533 192.909 510.533 191.175C510.533 189.958 510.273 189.498 509.345 189.075C507.618 188.288 502.627 188.403 500.968 189.268ZM515.667 196.467V204.4H517.533H519.4V196.467V188.533H517.533H515.667V196.467ZM528.262 189.583C525.459 191.491 524.767 192.884 524.767 196.617C524.767 199.406 524.954 200.23 525.887 201.538C528.978 205.871 536.887 205.877 539.97 201.548C541.471 199.442 541.766 194.64 540.541 192.276C539.144 189.58 537.083 188.533 533.167 188.533C530.448 188.533 529.509 188.734 528.262 189.583ZM546.468 194.483C546.468 201.052 547.075 203.175 549.267 204.27C550.894 205.083 553.706 205.008 555.453 204.105C556.471 203.578 556.98 203.506 557.102 203.872C557.199 204.162 558.1 204.4 559.105 204.4H560.933V196.467V188.533H559.067H557.2V194.356C557.2 199.918 557.152 200.21 556.126 200.882C554.447 201.982 552.425 202.217 551.367 201.434C550.531 200.816 550.417 200.102 550.28 194.639L550.126 188.533H548.297H546.467L546.468 194.483ZM567.969 189.742C566.783 190.74 566.536 191.287 566.548 192.892C566.567 195.398 567.149 196.104 570.522 197.711C572.771 198.782 573.3 199.246 573.3 200.149C573.3 202.275 571.187 202.547 567.35 200.914C566.661 200.621 566.533 200.823 566.533 202.204C566.533 203.622 566.731 203.911 568.003 204.354C571.649 205.625 575.475 204.519 576.579 201.876C577.773 199.018 576.583 196.986 572.711 195.269C570.077 194.101 569.351 193.137 570.272 192.027C570.938 191.225 574.085 191.096 575.431 191.816C576.241 192.25 576.333 192.137 576.333 190.7C576.333 188.786 575.843 188.533 572.131 188.533C569.879 188.533 569.155 188.743 567.969 189.742ZM235.879 190.89C234.625 192.276 234.736 194.962 236.092 196.06C237.495 197.197 238.516 197.162 240.087 195.927C241.171 195.074 241.326 194.676 241.102 193.303C240.591 190.15 237.741 188.833 235.879 190.89ZM250.6 190.867C249.3 192.166 249.372 194.627 250.747 195.919C252.151 197.238 253.638 197.205 255.018 195.824C255.97 194.872 256.073 194.473 255.743 193.011C255.532 192.073 255.102 190.998 254.789 190.62C253.974 189.638 251.694 189.772 250.6 190.867ZM305.059 190.867C304.924 191.252 304.502 192.512 304.123 193.667C303.743 194.822 303.283 196.134 303.1 196.583C302.808 197.298 303.065 197.4 305.15 197.4C306.461 197.4 307.533 197.231 307.533 197.024C307.533 195.909 305.268 190.271 305.059 190.867ZM352.401 193.217C351.018 197.313 351.041 197.4 353.5 197.4C355.963 197.4 355.981 197.321 354.493 193.243L353.402 190.253L352.401 193.217ZM439.904 191.924C439.215 192.428 439.117 193.196 439.232 197.174L439.367 201.833L441.52 201.973C443.277 202.087 443.938 201.89 445.106 200.908C447.745 198.687 448.187 194.686 446.045 192.406C445.275 191.586 444.528 191.333 442.875 191.333C441.685 191.333 440.349 191.599 439.904 191.924ZM460.904 191.924C460.215 192.428 460.117 193.196 460.232 197.174L460.367 201.833L462.324 201.976C466.049 202.246 468.533 199.879 468.533 196.059C468.533 194.745 468.182 193.787 467.325 192.769C466.291 191.539 465.801 191.333 463.914 191.333C462.703 191.333 461.349 191.599 460.904 191.924ZM530.251 192.05C528.01 193.62 527.736 198.659 529.79 200.538C533.308 203.757 537.594 201.477 537.598 196.386C537.601 193.26 535.935 191.333 533.229 191.333C532.154 191.333 530.814 191.656 530.251 192.05ZM397.6 197.4V201.6H400.131C404.306 201.6 406.581 198.806 405.244 195.321C404.78 194.113 402.503 193.2 399.957 193.2H397.6V197.4ZM211.493 201.693C210.207 202.979 211.341 204.752 213.033 204.102C214.182 203.661 213.585 201.133 212.333 201.133C212.179 201.133 211.801 201.385 211.493 201.693Z" fill="#0F0F0F"/>
</svg>