<svg width="16" height="16" viewBox="0 0 16 16" fill="none" xmlns="http://www.w3.org/2000/svg" id="svg-2034851589_520">
<path fill-rule="evenodd" clip-rule="evenodd" d="M8.00002 0C8.55231 0 9.00002 0.447715 9.00002 1V7.00008H15C15.5523 7.00008 16 7.4478 16 8.00008C16 8.55237 15.5523 9.00008 15 9.00008H9.00002V15C9.00002 15.5523 8.55231 16 8.00002 16C7.44774 16 7.00002 15.5523 7.00002 15V9.00008H1C0.447715 9.00008 0 8.55237 0 8.00008C0 7.4478 0.447715 7.00008 1 7.00008H7.00002V1C7.00002 0.447715 7.44774 0 8.00002 0Z" fill="white"/>
</svg>